<?xml version="1.0" standalone="no"?>
<!DOCTYPE svg PUBLIC "-//W3C//DTD SVG 20010904//EN"
 "http://www.w3.org/TR/2001/REC-SVG-20010904/DTD/svg10.dtd">
<svg version="1.0" xmlns="http://www.w3.org/2000/svg"
 width="300.000000pt" height="300.000000pt" viewBox="0 0 300.000000 300.000000"
 preserveAspectRatio="xMidYMid meet">
<metadata>
Created by potrace 1.14, written by Peter Selinger 2001-2017
</metadata>
<g transform="translate(0.000000,300.000000) scale(0.100000,-0.100000)"
fill="#000000" stroke="none">
<path d="M1675 2761 c-3 -5 -2 -12 3 -15 5 -3 9 1 9 9 0 17 -3 19 -12 6z"/>
<path d="M1633 2745 c0 -8 4 -12 9 -9 5 3 6 10 3 15 -9 13 -12 11 -12 -6z"/>
<path d="M1350 2727 c0 -4 -6 -7 -12 -5 -31 5 -170 -25 -256 -56 -30 -11 -41
-12 -37 -3 4 7 0 4 -8 -5 -8 -10 -21 -18 -29 -18 -8 0 -19 -5 -26 -12 -7 -7
-12 -9 -12 -4 0 4 -12 -2 -26 -13 -21 -16 -30 -19 -41 -10 -11 10 -12 8 -7 -6
5 -12 4 -16 -3 -12 -6 4 -14 1 -16 -5 -4 -10 -6 -10 -6 0 -1 6 -5 12 -10 12
-5 0 -8 -8 -7 -17 0 -10 -5 -17 -11 -15 -7 1 -13 -3 -13 -9 0 -5 -4 -8 -9 -5
-5 3 -11 -1 -15 -9 -3 -8 -12 -15 -20 -15 -8 0 -16 -3 -18 -8 -2 -4 -25 -25
-53 -47 -27 -22 -72 -61 -98 -87 -27 -27 -53 -48 -57 -48 -5 0 -12 -5 -16 -12
-5 -7 -2 -9 7 -4 8 4 1 -4 -16 -18 -16 -14 -27 -26 -23 -26 7 0 -9 -23 -38
-54 -5 -6 -13 -19 -17 -29 -4 -11 -12 -15 -19 -11 -7 4 -10 4 -6 -1 4 -4 -3
-26 -14 -49 -21 -39 -32 -99 -17 -90 4 2 10 -4 13 -14 10 -31 48 -44 109 -39
41 3 57 1 61 -9 6 -16 -10 -19 -19 -4 -3 5 -12 7 -21 3 -8 -3 -12 -8 -10 -11
3 -3 1 -11 -5 -19 -9 -10 -8 -13 0 -13 7 0 10 -4 6 -9 -3 -5 -1 -12 5 -16 11
-7 54 14 46 23 -4 3 -12 0 -18 -6 -17 -17 -24 -15 -25 6 -2 23 43 24 57 2 6
-9 10 -10 10 -3 0 6 -4 14 -9 17 -4 3 -8 15 -7 27 1 17 8 23 31 25 l30 3 -25
-21 c-23 -18 -23 -21 -7 -33 18 -13 24 -31 7 -20 -5 3 -10 1 -10 -4 0 -6 5
-11 11 -11 5 0 7 -5 3 -12 -4 -6 -3 -8 4 -4 6 3 16 -2 22 -11 8 -13 10 -14 9
-3 -3 29 1 41 11 35 6 -4 7 1 3 11 -5 14 -8 13 -19 -7 -12 -22 -19 -19 -14 6
1 5 -6 14 -14 21 -14 10 -13 14 9 34 18 16 25 19 25 9 0 -11 2 -12 9 -1 5 8
28 16 52 18 24 2 60 6 79 8 19 3 73 8 120 11 47 4 90 8 95 9 6 0 9 -5 7 -12
-1 -8 2 -11 8 -7 6 3 8 11 4 16 -4 7 9 9 32 7 26 -2 38 -7 36 -16 -1 -8 2 -11
8 -7 6 3 8 11 5 16 -4 5 0 9 7 10 7 0 21 2 31 4 9 2 15 -1 11 -6 -3 -5 0 -9 5
-9 6 0 11 4 11 9 0 6 8 10 18 9 9 0 69 2 132 5 75 4 119 2 128 -6 7 -5 12 -6
11 -1 -3 19 2 28 9 16 7 -9 15 -10 35 -3 17 7 27 7 27 1 0 -6 9 -6 24 0 16 6
28 5 36 -3 9 -8 11 -8 7 -1 -5 8 4 11 23 10 17 0 30 -5 30 -11 0 -5 5 -3 10 5
9 13 10 13 10 0 0 -9 3 -11 8 -5 9 14 55 13 64 0 5 -6 8 -5 8 3 0 6 5 12 11
12 5 0 7 -6 3 -12 -6 -10 -4 -10 8 0 13 10 17 10 21 0 4 -10 6 -10 6 0 1 6 5
12 10 12 6 0 8 -10 6 -21 -3 -12 -1 -18 3 -15 4 4 7 13 7 19 0 7 7 12 15 12 8
0 14 -7 12 -15 -1 -10 2 -9 13 4 11 14 15 16 15 5 0 -10 3 -10 8 -2 4 7 22 9
47 6 22 -2 92 -5 155 -6 63 -1 121 -6 128 -10 7 -5 12 -4 12 3 0 6 5 8 10 5 6
-4 7 -11 4 -17 -4 -7 -2 -8 5 -4 6 4 9 12 6 17 -11 16 7 10 22 -8 8 -10 12
-12 8 -5 -4 7 0 12 10 12 10 0 13 -5 9 -12 -6 -10 -5 -10 7 -2 15 13 83 14 95
2 4 -5 12 -8 18 -8 6 0 4 5 -4 10 -12 8 -10 10 10 10 31 0 44 9 59 38 19 36
18 75 -1 94 -20 20 -24 43 -6 32 7 -4 8 -3 4 4 -4 6 -13 9 -21 5 -15 -5 -21
12 -7 20 4 2 2 2 -5 1 -7 -2 -22 11 -34 28 -12 17 -35 44 -51 60 -16 16 -25
34 -22 40 4 6 3 8 -3 5 -13 -8 -46 27 -36 38 5 4 3 5 -4 1 -7 -4 -20 1 -30 11
-10 10 -35 31 -56 46 -21 16 -35 32 -32 38 3 5 0 6 -7 4 -8 -3 -23 3 -35 14
-11 11 -24 17 -29 13 -4 -4 -4 2 0 12 5 15 4 17 -8 7 -9 -8 -16 -9 -21 -2 -9
15 -136 74 -230 107 -44 15 -83 33 -87 38 -5 7 -8 6 -8 -3 0 -11 -4 -10 -16 5
-8 10 -13 13 -9 7 3 -7 1 -13 -4 -13 -6 0 -11 6 -11 13 0 8 -3 7 -10 -3 -8
-12 -10 -12 -16 3 -3 9 -10 17 -16 17 -5 0 -6 -4 -3 -10 3 -5 1 -10 -4 -10 -6
0 -11 4 -11 9 0 5 -12 8 -27 5 -15 -3 -30 0 -34 8 -7 10 -9 10 -9 1 0 -7 -5
-13 -11 -13 -5 0 -8 3 -6 8 3 4 -51 7 -119 7 -68 0 -124 -4 -124 -8z m218 -80
c4 -18 -13 -23 -22 -8 -3 5 -18 8 -33 8 -16 0 -22 -2 -15 -4 9 -4 7 -14 -9
-39 -11 -19 -18 -34 -16 -34 3 0 15 16 27 35 18 30 24 33 41 24 11 -5 24 -7
30 -3 8 4 9 -1 4 -17 -5 -19 -4 -21 4 -9 8 11 11 11 11 2 0 -7 -13 -18 -30
-23 -16 -6 -28 -15 -25 -19 3 -4 -1 -10 -9 -13 -14 -6 -16 -23 -5 -42 4 -5 5
-20 4 -32 -1 -13 1 -21 4 -18 2 3 20 -9 39 -27 19 -18 32 -28 28 -21 -4 7 1 9
15 6 15 -4 19 -11 15 -27 -5 -21 -5 -21 10 -1 9 11 20 19 26 17 30 -8 131 61
105 71 -8 3 -5 11 8 22 18 15 18 16 2 11 -12 -4 -17 -2 -15 6 9 27 -78 84
-127 83 -28 0 -44 10 -45 28 0 4 5 7 11 7 5 0 7 -4 4 -10 -4 -6 6 -8 24 -6 17
2 28 -1 25 -5 -3 -5 3 -6 12 -2 15 6 15 7 1 18 -9 7 -13 16 -9 20 4 5 1 5 -6
1 -7 -4 -9 -12 -6 -18 5 -8 1 -9 -12 -3 -10 4 -27 8 -37 9 -9 0 -16 5 -14 11
2 5 21 9 43 8 55 -2 56 -2 49 -13 -3 -5 -1 -10 4 -10 6 0 11 6 11 13 0 7 3 8
8 2 4 -5 18 -11 32 -12 57 -4 90 -17 90 -36 0 -8 -3 -8 -12 1 -7 7 -16 12 -21
12 -5 0 2 -9 16 -20 15 -12 32 -17 43 -13 13 5 15 3 9 -7 -5 -9 -4 -11 4 -6
17 11 2 28 -20 21 -14 -5 -17 -2 -13 8 4 12 30 16 42 7 1 -2 7 -4 12 -5 6 -1
12 -4 15 -5 3 -1 8 -3 13 -4 15 -2 127 -61 130 -68 2 -5 10 -8 18 -8 8 0 14
-4 14 -8 0 -5 16 -14 35 -22 25 -10 32 -17 25 -26 -6 -6 -8 -19 -4 -28 6 -15
-9 -21 -43 -17 -7 1 -13 -3 -13 -8 0 -12 50 -4 68 11 10 9 10 13 0 19 -7 4 -9
11 -6 15 17 17 188 -116 188 -146 0 -6 5 -8 10 -5 6 3 10 2 10 -3 0 -5 16 -27
35 -48 l35 -38 -27 -24 c-22 -18 -23 -21 -6 -12 18 8 24 7 33 -10 9 -16 8 -20
-6 -20 -10 0 -15 -3 -11 -6 3 -4 14 -4 23 0 15 6 15 8 -1 32 -12 19 -13 25 -4
22 8 -3 22 -19 32 -36 18 -30 18 -32 1 -25 -10 4 -15 2 -11 -3 3 -6 -9 -10
-27 -11 -24 0 -33 4 -32 15 2 24 -25 27 -31 3 -3 -11 -9 -18 -14 -15 -5 3 -7
10 -4 15 3 5 -1 6 -9 3 -9 -3 -14 -10 -11 -14 3 -5 -8 -5 -25 0 -16 5 -46 7
-65 4 -24 -3 -35 0 -35 8 0 9 -3 8 -10 -2 -8 -13 -11 -12 -23 4 -11 15 -16 16
-22 6 -5 -9 -4 -11 3 -6 7 4 12 3 12 -2 0 -5 -21 -8 -47 -6 -27 2 -61 3 -76 3
-20 1 -26 5 -21 14 6 9 5 9 -8 0 -8 -7 -30 -12 -48 -10 -26 2 -34 7 -37 25 -1
13 1 21 6 17 15 -9 23 13 11 32 -9 16 -10 15 -5 -5 5 -16 3 -22 -7 -20 -8 2
-13 -7 -12 -24 1 -24 -3 -28 -25 -28 -15 0 -33 6 -40 13 -9 7 -12 8 -7 0 8
-15 -116 -15 -126 1 -6 8 -8 7 -8 -1 0 -7 -12 -13 -28 -13 -15 0 -34 6 -41 13
-11 10 -13 10 -7 0 5 -10 -9 -13 -58 -13 -63 0 -94 14 -61 27 16 6 16 7 0 16
-26 14 -40 -5 -24 -34 12 -24 12 -24 -9 -5 -12 10 -19 23 -16 27 5 8 -10 13
-28 10 -5 0 -8 4 -8 10 0 7 10 9 25 7 13 -3 22 -2 20 3 -3 4 0 11 6 15 8 4 9
3 5 -4 -4 -7 -3 -12 1 -12 5 0 13 10 18 23 6 13 17 21 28 19 9 -2 20 5 24 14
6 15 7 15 20 -2 7 -10 13 -13 13 -7 0 6 -7 16 -15 23 -12 10 -16 9 -21 -4 -11
-28 -20 -18 -21 22 -1 40 -35 87 -64 90 -42 3 -59 7 -59 14 0 4 -5 8 -11 8 -5
0 -7 -4 -4 -10 3 -5 -2 -10 -12 -10 -10 0 -31 -9 -47 -19 -17 -11 -33 -18 -38
-15 -4 3 -5 -2 -2 -10 3 -9 1 -16 -5 -16 -6 0 -8 -7 -5 -15 4 -8 1 -22 -5 -29
-9 -11 -9 -16 0 -22 8 -5 9 -3 4 6 -5 8 -4 11 3 6 6 -4 8 -14 5 -23 -4 -10 -2
-14 4 -10 6 4 13 0 17 -8 3 -8 0 -15 -6 -15 -6 0 -8 -3 -5 -6 4 -4 13 -1 21 5
10 8 16 9 21 1 3 -5 15 -10 26 -10 23 0 25 -13 2 -31 -15 -12 -16 -12 -10 4 4
11 3 16 -3 12 -6 -3 -10 0 -10 7 0 8 -3 9 -8 3 -4 -6 -17 -10 -30 -9 -12 1
-25 -3 -28 -8 -4 -6 -10 -5 -15 3 -5 8 -9 9 -9 3 0 -5 6 -18 13 -29 11 -14 16
-15 22 -5 6 9 4 11 -5 5 -8 -5 -11 -3 -8 5 6 19 48 23 48 6 0 -8 4 -17 9 -20
5 -4 7 4 4 16 -4 22 -4 22 8 3 17 -29 17 -29 34 -15 8 7 15 8 15 3 0 -18 30
-10 36 9 6 19 6 19 20 1 18 -24 18 -39 -1 -23 -8 7 -15 8 -15 3 0 -5 -38 -9
-85 -9 -64 1 -88 5 -96 16 -8 12 -9 11 -5 -5 5 -18 1 -21 -36 -22 -61 -3 -183
-12 -251 -19 -39 -4 -63 -2 -73 6 -12 11 -13 10 -9 -2 4 -11 -3 -15 -27 -15
-34 -1 -139 -10 -218 -19 -77 -9 -145 -12 -152 -7 -10 5 17 57 40 81 9 10 23
30 31 45 8 15 21 27 30 27 14 0 14 2 1 10 -13 8 -12 10 3 10 9 0 17 6 17 14 0
8 9 21 20 29 11 8 17 17 12 22 -4 4 1 5 11 2 11 -4 16 -3 12 4 -4 6 12 27 36
47 24 20 51 44 60 53 29 29 109 80 109 70 0 -5 -6 -12 -12 -14 -10 -4 -10 -6
0 -6 7 -1 17 10 21 23 9 22 23 33 45 34 5 0 12 6 16 12 5 9 9 9 14 1 4 -6 2
-11 -5 -11 -10 0 -10 -3 -1 -12 7 -7 12 -17 12 -23 -1 -5 -10 1 -22 15 l-21
25 7 -25 c4 -14 4 -20 -1 -15 -11 14 -36 18 -28 5 4 -6 -9 -26 -28 -45 -19
-19 -32 -36 -28 -37 32 -7 59 -3 54 9 -3 7 0 13 6 13 17 0 13 -21 -10 -59 -11
-18 -18 -36 -15 -39 4 -3 6 1 6 9 0 8 11 -4 25 -26 13 -22 25 -36 25 -32 0 5
5 5 11 1 8 -4 7 -9 -2 -16 -10 -7 -8 -8 6 -3 11 4 34 9 50 11 41 7 85 25 85
35 0 5 5 9 11 9 5 0 8 -4 5 -8 -3 -5 1 -9 9 -9 11 0 12 4 4 13 -12 15 -3 37
12 29 5 -4 6 2 2 12 -6 16 -4 16 17 -2 l24 -20 -22 29 c-27 36 -28 46 -2 41
12 -2 18 0 15 6 -4 5 -10 7 -15 4 -5 -3 -16 6 -25 19 -9 14 -25 28 -36 31 -11
4 -17 11 -14 16 4 5 2 9 -4 9 -5 0 -11 -6 -14 -12 -3 -10 -7 -10 -20 1 -9 7
-14 18 -10 24 4 6 10 3 15 -9 8 -19 8 -19 5 0 -1 11 -6 18 -11 17 -5 -2 -13 3
-18 11 -5 8 -6 1 -3 -20 3 -19 2 -31 -4 -28 -5 3 -21 -4 -37 -16 -15 -13 -25
-17 -20 -10 4 6 2 12 -3 12 -6 0 -11 -7 -11 -15 0 -8 -5 -15 -11 -15 -5 0 -7
5 -4 10 4 6 2 17 -5 25 -9 11 -6 14 17 13 15 0 37 0 47 1 20 1 20 1 0 16 -18
14 -18 16 -1 29 9 7 17 17 17 21 0 4 -7 2 -15 -5 -8 -7 -15 -8 -15 -3 0 5 16
17 35 26 32 15 35 15 45 -1 8 -12 10 -13 8 -2 -2 8 1 16 6 17 5 1 12 6 15 11
6 9 121 55 121 48 0 -2 21 2 46 10 43 13 46 12 40 -4 -5 -14 -4 -14 9 2 11 14
29 20 71 22 30 1 57 4 59 6 3 2 42 3 87 3 69 -1 84 -5 86 -18z m39 -131 c-4
-10 -1 -13 8 -9 8 3 13 9 10 13 -4 7 24 6 33 0 1 -2 8 -3 15 -4 16 -1 22 -46
7 -46 -7 0 -10 8 -8 18 3 12 0 19 -9 19 -8 0 -11 -7 -8 -18 5 -13 1 -17 -15
-16 -25 2 -54 32 -45 46 9 16 18 13 12 -3z m-717 -75 c0 -5 -9 -13 -20 -16
-11 -4 -18 -11 -15 -16 4 -5 -2 -9 -11 -9 -15 0 -14 4 6 25 24 26 40 32 40 16z
m146 -57 c-3 -19 -27 -44 -37 -38 -5 3 -9 1 -9 -4 0 -5 -7 -9 -15 -9 -13 0
-13 3 2 19 9 10 14 21 10 24 -7 8 -29 -5 -23 -14 2 -4 -2 -13 -10 -20 -11 -10
-14 -10 -14 0 0 18 12 33 35 46 25 14 63 12 61 -4z m352 -91 c-2 -10 -7 -22
-13 -26 -6 -5 -4 -7 5 -4 8 2 14 10 13 16 -2 6 2 11 8 11 5 0 7 6 3 13 -6 9
-5 9 8 0 8 -7 18 -10 21 -6 4 3 7 1 7 -5 0 -7 0 -15 0 -19 0 -5 -3 -8 -7 -8
-5 0 -12 -3 -18 -6 -21 -12 -50 -4 -49 14 3 33 4 37 14 37 6 0 10 -8 8 -17z
m-33 -10 c-2 -10 -4 -20 -4 -23 -1 -3 -5 2 -11 10 -6 9 -5 17 3 22 16 10 16
10 12 -9z m35 -108 c-11 -13 -10 -14 4 -9 9 3 16 1 16 -6 0 -6 -8 -10 -17 -8
-10 1 -24 -2 -32 -6 -9 -6 -7 1 5 17 10 15 23 27 28 27 5 0 3 -7 -4 -15z m100
-9 c0 -3 -4 -8 -10 -11 -5 -3 -10 -1 -10 4 0 6 5 11 10 11 6 0 10 -2 10 -4z
m880 -35 c0 -6 -4 -13 -10 -16 -5 -3 -10 1 -10 9 0 9 5 16 10 16 6 0 10 -4 10
-9z m-1805 -171 c3 -5 1 -10 -4 -10 -6 0 -11 5 -11 10 0 6 2 10 4 10 3 0 8 -4
11 -10z"/>
<path d="M1455 2630 c-4 -6 1 -7 11 -3 13 5 15 3 9 -7 -5 -9 -4 -11 4 -6 6 4
9 12 6 17 -8 12 -22 12 -30 -1z"/>
<path d="M1390 2616 c7 -7 13 -7 20 0 6 6 3 10 -10 10 -13 0 -16 -4 -10 -10z"/>
<path d="M1691 2623 c-2 -22 -1 -23 7 -25 4 -1 16 -10 27 -20 16 -16 20 -16
27 -4 5 9 16 13 26 10 15 -5 15 -4 -1 6 -9 6 -14 17 -11 23 4 7 3 8 -2 4 -5
-5 -9 -14 -9 -19 0 -6 -6 -13 -13 -16 -7 -2 -10 2 -6 12 3 9 1 16 -6 16 -6 0
-8 5 -4 13 6 9 4 9 -8 -1 -13 -10 -17 -10 -21 0 -4 10 -6 10 -6 1z"/>
<path d="M1530 2610 c13 -9 7 -14 -12 -11 -5 0 -8 -3 -8 -9 0 -12 10 -13 29
-1 15 10 7 31 -12 31 -7 0 -6 -4 3 -10z"/>
<path d="M1135 2601 c-3 -5 -2 -12 3 -15 5 -3 9 1 9 9 0 17 -3 19 -12 6z"/>
<path d="M1430 2599 c0 -5 5 -7 10 -4 6 3 10 8 10 11 0 2 -4 4 -10 4 -5 0 -10
-5 -10 -11z"/>
<path d="M1395 2580 c3 -5 8 -10 11 -10 2 0 4 5 4 10 0 6 -5 10 -11 10 -5 0
-7 -4 -4 -10z"/>
<path d="M1876 2565 c-3 -8 -1 -15 4 -15 6 0 10 7 10 15 0 8 -2 15 -4 15 -2 0
-6 -7 -10 -15z"/>
<path d="M1910 2571 c0 -5 5 -13 10 -16 6 -3 10 -2 10 4 0 5 -4 13 -10 16 -5
3 -10 2 -10 -4z"/>
<path d="M1060 2559 c0 -5 5 -7 10 -4 6 3 10 8 10 11 0 2 -4 4 -10 4 -5 0 -10
-5 -10 -11z"/>
<path d="M1090 2558 c0 -3 9 -6 20 -5 11 1 20 5 20 9 0 3 -9 6 -20 5 -11 -1
-20 -5 -20 -9z"/>
<path d="M1147 2559 c7 -7 15 -10 18 -7 3 3 -2 9 -12 12 -14 6 -15 5 -6 -5z"/>
<path d="M1186 2558 c3 -5 10 -6 15 -3 13 9 11 12 -6 12 -8 0 -12 -4 -9 -9z"/>
<path d="M1486 2562 c-3 -5 1 -9 9 -9 8 0 15 4 15 9 0 4 -4 8 -9 8 -6 0 -12
-4 -15 -8z"/>
<path d="M1767 2553 c3 -7 9 -13 15 -13 5 0 6 5 2 12 -5 8 -2 9 9 5 10 -3 17
-2 17 3 0 5 -11 9 -24 8 -15 -1 -22 -7 -19 -15z"/>
<path d="M980 2540 c0 -5 7 -7 15 -4 8 4 15 8 15 10 0 2 -7 4 -15 4 -8 0 -15
-4 -15 -10z"/>
<path d="M1036 2535 c-3 -9 -12 -12 -23 -9 -16 5 -16 4 1 -6 15 -10 20 -9 27
1 9 15 12 29 5 29 -2 0 -6 -7 -10 -15z"/>
<path d="M1437 2543 c-9 -8 12 -33 27 -33 6 0 3 5 -7 11 -9 6 -15 14 -12 20 7
10 2 12 -8 2z"/>
<path d="M1819 2543 c-1 -5 -1 -12 0 -16 1 -5 -9 -6 -21 -2 -20 5 -21 4 -5 -5
20 -13 41 -4 31 12 -5 7 -1 9 9 5 10 -3 17 -2 17 3 0 12 -29 14 -31 3z"/>
<path d="M1895 2540 c-3 -5 5 -15 19 -21 14 -7 23 -16 19 -22 -4 -6 -1 -7 7
-2 10 6 9 11 -5 22 -11 7 -23 13 -28 13 -4 0 -5 5 -2 10 3 6 4 10 1 10 -3 0
-8 -4 -11 -10z"/>
<path d="M1934 2539 c-4 -7 -3 -9 4 -5 5 3 13 0 15 -6 4 -9 6 -10 6 -1 1 17
-16 25 -25 12z"/>
<path d="M1861 2524 c0 -11 3 -14 6 -6 3 7 2 16 -1 19 -3 4 -6 -2 -5 -13z"/>
<path d="M1048 2509 c-12 -13 -14 -19 -5 -19 7 0 18 9 25 20 15 25 3 25 -20
-1z"/>
<path d="M1135 2520 c3 -5 8 -10 11 -10 2 0 4 5 4 10 0 6 -5 10 -11 10 -5 0
-7 -4 -4 -10z"/>
<path d="M1985 2520 c-3 -5 -2 -10 4 -10 5 0 13 5 16 10 3 6 2 10 -4 10 -5 0
-13 -4 -16 -10z"/>
<path d="M955 2500 c-3 -5 -1 -10 4 -10 6 0 11 5 11 10 0 6 -2 10 -4 10 -3 0
-8 -4 -11 -10z"/>
<path d="M1476 2495 c-3 -9 -9 -14 -14 -11 -4 2 -14 0 -22 -5 -11 -7 -10 -8 8
-6 24 4 49 23 40 32 -3 3 -8 -1 -12 -10z"/>
<path d="M1833 2495 c0 -8 4 -12 9 -9 4 3 8 9 8 15 0 5 -4 9 -8 9 -5 0 -9 -7
-9 -15z"/>
<path d="M1956 2495 c-3 -9 -6 -22 -5 -28 0 -7 5 -1 10 12 5 13 8 26 5 28 -2
2 -6 -3 -10 -12z"/>
<path d="M1996 2495 c-11 -8 -15 -15 -10 -15 6 0 19 7 30 15 10 8 15 14 9 14
-5 0 -19 -6 -29 -14z"/>
<path d="M1088 2492 c-17 -7 -17 -8 0 -18 15 -10 18 -8 18 7 0 11 0 19 -1 18
0 0 -8 -4 -17 -7z"/>
<path d="M1500 2491 c0 -6 4 -13 10 -16 6 -3 7 1 4 9 -7 18 -14 21 -14 7z"/>
<path d="M2020 2478 l-25 -20 27 16 c26 15 28 15 42 -6 15 -22 13 -38 -5 -38
-6 0 -8 4 -5 8 2 4 1 13 -3 20 -5 9 -13 6 -29 -8 -12 -12 -22 -16 -22 -9 0 6
-8 2 -17 -9 -18 -21 -31 -25 -66 -23 -11 1 -15 6 -11 13 5 7 3 8 -6 3 -10 -6
-10 -10 3 -20 13 -10 13 -12 1 -21 -8 -5 -16 -19 -19 -32 -2 -12 -7 -27 -10
-32 -3 -6 -2 -10 3 -10 6 0 13 -7 16 -16 5 -14 4 -15 -9 -4 -8 7 -15 10 -15 7
0 -14 92 -68 119 -70 16 -1 27 -6 23 -11 -3 -6 2 -6 14 -1 10 5 34 9 52 9 19
0 27 3 20 7 -7 4 -9 11 -5 15 3 4 14 1 24 -7 14 -12 16 -12 8 0 -6 11 -4 13 9
8 11 -4 15 -3 11 4 -4 6 -13 8 -21 5 -11 -4 -13 1 -8 22 4 15 7 32 8 37 0 6 9
16 19 23 9 7 17 21 16 30 0 14 -2 14 -6 2 -6 -15 -22 -30 -33 -30 -3 0 -6 9
-6 20 0 13 5 19 13 16 7 -3 13 -1 13 5 0 6 -8 9 -17 7 -10 -2 -17 -11 -15 -19
1 -9 -3 -7 -13 5 -8 11 -15 16 -15 10 0 -5 -7 -1 -15 10 -8 10 -19 15 -26 10
-7 -4 -10 -3 -5 4 3 6 2 13 -4 17 -6 4 -8 11 -5 16 9 13 25 11 23 -3 -2 -7 11
-12 31 -14 24 -1 30 1 20 8 -11 7 -11 11 -1 15 6 2 12 9 12 15 0 6 -7 4 -17
-3 -15 -12 -16 -12 -9 6 4 11 4 16 0 12 -4 -4 -15 -1 -23 7 -14 13 -19 12 -41
-6z m0 -60 c0 -4 -7 -8 -15 -8 -8 0 -15 4 -15 8 0 5 7 9 15 9 8 0 15 -4 15 -9z
m-30 -80 c0 -4 5 -8 11 -8 5 0 7 5 3 11 -3 6 8 3 25 -5 17 -9 28 -22 25 -29
-5 -14 -64 -19 -64 -5 0 4 -6 8 -14 8 -17 0 -30 16 -22 28 3 5 12 9 21 9 8 0
15 -4 15 -9z"/>
<path d="M2000 2319 c-12 -8 -10 -9 9 -4 16 5 21 4 17 -4 -5 -7 -1 -8 9 -4 13
5 14 7 3 14 -17 11 -20 11 -38 -2z"/>
<path d="M1790 2482 c0 -6 9 -12 20 -15 11 -3 20 -3 20 -1 0 2 -9 8 -20 14
-11 6 -20 7 -20 2z"/>
<path d="M1856 2474 c-3 -7 3 -10 15 -7 26 7 32 19 9 19 -11 0 -22 -6 -24 -12z"/>
<path d="M1914 2482 c3 -5 0 -13 -6 -15 -8 -3 -6 -6 5 -6 19 -1 23 14 5 25 -6
4 -8 3 -4 -4z"/>
<path d="M1060 2466 c0 -2 7 -7 16 -10 8 -3 12 -2 9 4 -6 10 -25 14 -25 6z"/>
<path d="M1496 2456 c5 -13 4 -17 -4 -12 -8 5 -10 2 -5 -10 6 -15 7 -15 16 1
6 11 5 21 -3 28 -8 9 -9 7 -4 -7z"/>
<path d="M1970 2460 c0 -5 -10 -19 -22 -30 -16 -15 -18 -19 -6 -15 20 8 53 55
38 55 -5 0 -10 -4 -10 -10z"/>
<path d="M1290 2456 c0 -2 8 -10 18 -17 15 -13 16 -12 3 4 -13 16 -21 21 -21
13z"/>
<path d="M796 2435 c-17 -13 -18 -15 -3 -15 9 0 17 5 17 11 0 5 5 7 12 3 7 -4
8 -3 4 4 -9 14 -7 15 -30 -3z"/>
<path d="M1101 2434 c0 -11 3 -14 6 -6 3 7 2 16 -1 19 -3 4 -6 -2 -5 -13z"/>
<path d="M1419 2433 c-13 -16 -12 -17 4 -4 9 7 17 15 17 17 0 8 -8 3 -21 -13z"/>
<path d="M1770 2446 c0 -2 7 -7 16 -10 8 -3 12 -2 9 4 -6 10 -25 14 -25 6z"/>
<path d="M1830 2442 c0 -5 7 -9 15 -9 8 0 12 4 9 9 -3 4 -9 8 -15 8 -5 0 -9
-4 -9 -8z"/>
<path d="M1879 2433 c-13 -16 -12 -17 4 -4 9 7 17 15 17 17 0 8 -8 3 -21 -13z"/>
<path d="M1916 2438 c3 -4 11 -5 19 -1 21 7 19 12 -4 10 -11 0 -18 -5 -15 -9z"/>
<path d="M1540 2430 c0 -5 -7 -7 -15 -4 -8 4 -15 2 -15 -4 0 -14 33 -8 38 6 2
7 1 12 -2 12 -3 0 -6 -4 -6 -10z"/>
<path d="M1153 2415 c0 -8 4 -12 9 -9 5 3 6 10 3 15 -9 13 -12 11 -12 -6z"/>
<path d="M1356 2413 c-6 -14 -5 -15 5 -6 7 7 10 15 7 18 -3 3 -9 -2 -12 -12z"/>
<path d="M2157 2413 c-4 -3 -7 -11 -7 -17 0 -6 5 -5 12 2 6 6 9 14 7 17 -3 3
-9 2 -12 -2z"/>
<path d="M2185 2408 c4 -11 2 -18 -4 -18 -6 0 -11 -5 -11 -11 0 -8 6 -7 16 2
15 12 16 11 10 -9 -4 -12 -3 -22 2 -22 14 0 8 48 -7 63 -9 9 -11 8 -6 -5z"/>
<path d="M770 2395 c0 -8 2 -15 4 -15 2 0 6 7 10 15 3 8 1 15 -4 15 -6 0 -10
-7 -10 -15z"/>
<path d="M1295 2399 c-3 -4 2 -6 10 -5 21 3 28 13 10 13 -9 0 -18 -4 -20 -8z"/>
<path d="M1396 2398 c3 -5 10 -6 15 -3 13 9 11 12 -6 12 -8 0 -12 -4 -9 -9z"/>
<path d="M1437 2393 c3 -7 6 -13 8 -13 2 0 5 6 8 13 3 8 -1 14 -8 14 -7 0 -11
-6 -8 -14z"/>
<path d="M1494 2393 c3 -21 28 -24 32 -5 1 7 0 8 -3 2 -2 -5 -9 -10 -14 -10
-6 0 -8 4 -4 9 3 5 1 12 -4 15 -5 4 -8 -2 -7 -11z"/>
<path d="M1553 2395 c0 -8 4 -15 9 -15 4 0 8 7 8 15 0 8 -4 15 -8 15 -5 0 -9
-7 -9 -15z"/>
<path d="M1713 2403 c4 -3 2 -11 -3 -18 -7 -8 -6 -12 3 -12 7 0 14 9 14 19 1
10 -3 18 -9 18 -6 0 -8 -3 -5 -7z"/>
<path d="M1873 2395 c0 -8 4 -15 9 -15 4 0 8 4 8 9 0 6 -4 12 -8 15 -5 3 -9
-1 -9 -9z"/>
<path d="M1793 2385 c0 -8 4 -12 9 -9 5 3 6 10 3 15 -9 13 -12 11 -12 -6z"/>
<path d="M753 2372 c2 -12 9 -28 17 -35 10 -10 11 -9 4 3 -5 8 -9 21 -10 28
-2 8 -5 17 -8 20 -4 3 -5 -4 -3 -16z"/>
<path d="M790 2381 c0 -6 7 -7 17 -4 10 4 14 2 9 -5 -3 -6 -2 -13 3 -16 5 -4
8 2 7 11 -3 19 -36 32 -36 14z"/>
<path d="M1195 2380 c-3 -5 -1 -10 4 -10 6 0 11 5 11 10 0 6 -2 10 -4 10 -3 0
-8 -4 -11 -10z"/>
<path d="M845 2369 c-11 -16 -1 -19 13 -3 7 8 8 14 3 14 -5 0 -13 -5 -16 -11z"/>
<path d="M1315 2370 c-4 -6 -11 -8 -16 -5 -5 4 -9 1 -9 -4 0 -15 11 -13 34 4
11 8 15 15 9 15 -7 0 -15 -5 -18 -10z"/>
<path d="M1674 2369 c-3 -6 -2 -15 3 -20 5 -5 9 -1 9 11 0 23 -2 24 -12 9z"/>
<path d="M1530 2360 c0 -5 5 -10 10 -10 6 0 10 5 10 10 0 6 -4 10 -10 10 -5 0
-10 -4 -10 -10z"/>
<path d="M1571 2367 c2 -1 13 -9 24 -17 19 -14 19 -14 6 3 -7 9 -18 17 -24 17
-6 0 -8 -1 -6 -3z"/>
<path d="M1836 2353 c-6 -14 -5 -15 5 -6 7 7 10 15 7 18 -3 3 -9 -2 -12 -12z"/>
<path d="M2237 2351 c14 -17 33 -20 33 -5 0 3 -4 3 -9 0 -5 -3 -11 1 -15 9 -3
8 -10 15 -16 15 -5 0 -2 -9 7 -19z"/>
<path d="M1230 2346 c0 -2 7 -7 16 -10 8 -3 12 -2 9 4 -6 10 -25 14 -25 6z"/>
<path d="M1517 2330 c10 -11 19 -20 21 -20 1 0 -2 9 -8 20 -6 11 -15 20 -20
20 -6 0 -2 -9 7 -20z"/>
<path d="M1561 2341 c-8 -5 -9 -11 -3 -15 5 -3 12 1 16 9 6 17 6 18 -13 6z"/>
<path d="M1635 2330 c10 -11 20 -20 23 -20 3 0 -3 9 -13 20 -10 11 -20 20 -23
20 -3 0 3 -9 13 -20z"/>
<path d="M2162 2338 c-7 -7 -12 -16 -12 -22 0 -5 7 -1 15 10 15 19 16 19 13
-1 -2 -11 -7 -24 -13 -28 -6 -5 -4 -7 4 -5 16 5 25 44 12 52 -4 3 -13 0 -19
-6z"/>
<path d="M2209 2329 c-12 -24 3 -50 16 -28 5 8 4 10 -3 5 -15 -9 -15 -1 -2 25
6 10 8 19 6 19 -3 0 -10 -9 -17 -21z"/>
<path d="M686 2325 c-18 -14 -18 -14 1 -12 11 0 20 7 20 14 0 7 -1 13 -1 13
-1 0 -9 -7 -20 -15z"/>
<path d="M820 2333 c0 -17 30 -44 41 -38 5 4 9 8 9 11 0 3 -4 3 -9 -1 -5 -3
-17 5 -25 17 -9 12 -16 17 -16 11z"/>
<path d="M790 2321 c0 -5 8 -15 18 -22 15 -12 16 -12 5 2 -7 9 -10 19 -6 22 3
4 1 7 -5 7 -7 0 -12 -4 -12 -9z"/>
<path d="M2270 2320 c0 -5 7 -7 15 -4 8 4 15 8 15 10 0 2 -7 4 -15 4 -8 0 -15
-4 -15 -10z"/>
<path d="M1114 2305 c1 -8 8 -21 16 -28 12 -10 12 -9 2 4 -6 9 -9 18 -6 21 3
3 1 9 -4 12 -6 3 -9 -1 -8 -9z"/>
<path d="M1550 2302 c0 -5 10 -17 23 -28 22 -19 22 -19 4 2 -9 11 -14 24 -10
27 3 4 1 7 -5 7 -7 0 -12 -4 -12 -8z"/>
<path d="M1587 2299 c7 -7 15 -10 18 -7 3 3 -2 9 -12 12 -14 6 -15 5 -6 -5z"/>
<path d="M2130 2300 c0 -5 5 -10 11 -10 5 0 7 5 4 10 -3 6 -8 10 -11 10 -2 0
-4 -4 -4 -10z"/>
<path d="M2294 2302 c3 -5 2 -12 -4 -14 -5 -2 -6 -9 -1 -16 6 -10 10 -9 14 7
3 12 0 24 -5 28 -6 3 -8 1 -4 -5z"/>
<path d="M733 2285 c0 -8 4 -12 9 -9 5 3 6 10 3 15 -9 13 -12 11 -12 -6z"/>
<path d="M1630 2296 c0 -2 8 -10 18 -17 15 -13 16 -12 3 4 -13 16 -21 21 -21
13z"/>
<path d="M1786 2285 c-11 -8 -15 -15 -9 -15 6 0 16 7 23 15 16 19 11 19 -14 0z"/>
<path d="M2237 2293 c-4 -3 -7 -11 -7 -17 0 -6 5 -5 12 2 6 6 9 14 7 17 -3 3
-9 2 -12 -2z"/>
<path d="M650 2280 c-9 -6 -10 -10 -3 -10 6 0 15 5 18 10 8 12 4 12 -15 0z"/>
<path d="M775 2280 c3 -5 8 -10 11 -10 2 0 4 5 4 10 0 6 -5 10 -11 10 -5 0 -7
-4 -4 -10z"/>
<path d="M865 2280 c-3 -6 1 -7 9 -4 18 7 21 14 7 14 -6 0 -13 -4 -16 -10z"/>
<path d="M2190 2281 c0 -10 19 -25 25 -20 1 2 -3 10 -11 17 -8 7 -14 8 -14 3z"/>
<path d="M2150 2270 c0 -5 7 -10 16 -10 9 0 12 -5 8 -12 -4 -7 -3 -8 4 -4 16
10 15 14 -8 26 -14 7 -20 7 -20 0z"/>
<path d="M1038 2263 c7 -3 16 -2 19 1 4 3 -2 6 -13 5 -11 0 -14 -3 -6 -6z"/>
<path d="M1073 2253 c0 -9 4 -10 14 -2 7 6 13 12 13 14 0 1 -6 2 -13 2 -8 0
-14 -6 -14 -14z"/>
<path d="M2312 2258 c2 -6 10 -13 16 -14 7 -1 8 0 2 3 -5 2 -8 9 -4 14 3 5 0
9 -6 9 -7 0 -10 -5 -8 -12z"/>
<path d="M655 2250 c-4 -6 -10 -8 -15 -5 -4 3 -7 -2 -6 -10 1 -8 4 -16 7 -17
2 -2 3 -1 1 1 -1 2 5 13 15 23 9 10 13 18 10 18 -3 0 -9 -5 -12 -10z"/>
<path d="M1134 2249 c-3 -6 -2 -15 3 -20 5 -5 9 -1 9 11 0 23 -2 24 -12 9z"/>
<path d="M2357 2239 c4 -13 8 -18 11 -10 2 7 -1 18 -6 23 -8 8 -9 4 -5 -13z"/>
<path d="M995 2240 c3 -5 8 -10 11 -10 2 0 4 5 4 10 0 6 -5 10 -11 10 -5 0 -7
-4 -4 -10z"/>
<path d="M1040 2246 c0 -2 8 -10 18 -17 15 -13 16 -12 3 4 -13 16 -21 21 -21
13z"/>
<path d="M1236 2237 c3 -10 9 -15 12 -12 3 3 0 11 -7 18 -10 9 -11 8 -5 -6z"/>
<path d="M1901 2240 c-9 -5 -4 -7 13 -7 29 0 32 2 13 10 -8 3 -20 2 -26 -3z"/>
<path d="M2193 2237 c-3 -6 -1 -7 5 -3 5 3 12 1 14 -6 3 -8 6 -7 10 3 7 17
-19 22 -29 6z"/>
<path d="M2294 2235 c1 -9 9 -21 17 -26 8 -5 10 -9 6 -9 -5 0 -1 -7 8 -16 25
-26 28 -10 3 17 -13 14 -24 28 -25 33 -3 16 -11 17 -9 1z"/>
<path d="M950 2220 c0 -5 5 -10 10 -10 6 0 10 5 10 10 0 6 -4 10 -10 10 -5 0
-10 -4 -10 -10z"/>
<path d="M1020 2226 c0 -2 8 -10 18 -17 15 -13 16 -12 3 4 -13 16 -21 21 -21
13z"/>
<path d="M1536 2221 c-4 -5 -3 -16 0 -25 5 -12 2 -15 -10 -10 -9 3 -16 12 -16
20 0 8 -4 14 -10 14 -16 0 -7 -24 15 -37 25 -15 38 -7 29 19 -4 15 -3 18 6 13
9 -5 11 -4 6 3 -9 14 -13 15 -20 3z"/>
<path d="M1576 2215 c-9 -26 -7 -32 5 -12 6 10 9 21 6 23 -2 3 -7 -2 -11 -11z"/>
<path d="M1695 2219 c-3 -4 2 -6 10 -5 21 3 28 13 10 13 -9 0 -18 -4 -20 -8z"/>
<path d="M1877 2213 c6 -16 5 -17 -13 -3 -18 14 -18 14 -5 -2 7 -10 17 -18 22
-18 12 0 11 27 -1 35 -6 4 -7 -1 -3 -12z"/>
<path d="M2139 2223 c-1 -5 -1 -12 0 -16 1 -5 -9 -6 -21 -2 -20 5 -21 4 -5 -5
20 -13 41 -4 31 12 -5 7 -1 9 9 5 10 -3 17 -2 17 3 0 12 -29 14 -31 3z"/>
<path d="M2230 2219 c0 -5 5 -7 10 -4 6 3 10 8 10 11 0 2 -4 4 -10 4 -5 0 -10
-5 -10 -11z"/>
<path d="M2342 2210 c15 -23 18 -24 38 -9 13 9 12 10 -3 5 -11 -3 -20 0 -23 9
-4 8 -10 15 -15 15 -5 0 -4 -9 3 -20z"/>
<path d="M593 2205 c0 -8 4 -12 9 -9 5 3 6 10 3 15 -9 13 -12 11 -12 -6z"/>
<path d="M1098 2208 c12 -16 35 -18 48 -6 3 4 -2 5 -13 4 -10 -2 -25 2 -33 8
-13 9 -13 9 -2 -6z"/>
<path d="M1938 2213 c6 -3 10 -8 8 -12 -3 -4 4 -8 15 -8 11 -1 17 2 14 8 -4 5
-2 9 4 9 5 0 12 -5 14 -10 3 -6 4 -5 3 2 -1 7 -18 13 -37 14 -19 1 -28 -1 -21
-3z"/>
<path d="M2060 2205 c14 -17 1 -20 -18 -5 -9 7 -9 7 -2 -2 15 -18 12 -25 -10
-31 -11 -3 -20 -11 -19 -19 0 -10 2 -10 6 0 2 6 9 12 14 12 6 0 7 -5 3 -12 -4
-6 -3 -8 4 -4 5 3 12 3 15 -1 2 -5 2 -2 0 6 -2 8 7 25 19 39 13 14 17 22 11
18 -7 -4 -13 -2 -13 3 0 6 -5 11 -11 11 -8 0 -8 -5 1 -15z"/>
<path d="M627 2199 c7 -7 15 -10 18 -7 3 3 -2 9 -12 12 -14 6 -15 5 -6 -5z"/>
<path d="M1013 2195 c0 -8 4 -12 9 -9 5 3 6 10 3 15 -9 13 -12 11 -12 -6z"/>
<path d="M1210 2202 c0 -5 7 -9 15 -9 8 0 12 4 9 9 -3 4 -9 8 -15 8 -5 0 -9
-4 -9 -8z"/>
<path d="M1250 2200 c0 -5 5 -10 10 -10 6 0 10 5 10 10 0 6 -4 10 -10 10 -5 0
-10 -4 -10 -10z"/>
<path d="M1633 2195 c0 -8 4 -12 9 -9 5 3 6 10 3 15 -9 13 -12 11 -12 -6z"/>
<path d="M2210 2200 c0 -5 5 -10 11 -10 5 0 7 5 4 10 -3 6 -8 10 -11 10 -2 0
-4 -4 -4 -10z"/>
<path d="M2245 2200 c-3 -6 1 -7 9 -4 18 7 21 14 7 14 -6 0 -13 -4 -16 -10z"/>
<path d="M2280 2204 c0 -13 18 -39 24 -34 2 3 -2 14 -10 24 -8 11 -14 16 -14
10z"/>
<path d="M2007 2186 c-4 -10 -1 -13 8 -9 8 3 12 9 9 14 -7 12 -11 11 -17 -5z"/>
<path d="M2155 2189 c-4 -6 -5 -12 -2 -15 2 -3 7 2 10 11 7 17 1 20 -8 4z"/>
<path d="M555 2180 c-4 -6 -4 -14 -1 -17 3 -4 6 -1 6 5 0 7 5 12 11 12 5 0 8
-4 5 -8 -2 -4 0 -14 5 -22 7 -11 8 -9 6 9 -4 27 -21 38 -32 21z"/>
<path d="M604 2179 c-3 -6 -2 -15 4 -21 6 -6 12 -6 17 3 6 8 4 10 -5 4 -10 -6
-12 -4 -7 8 7 19 2 23 -9 6z"/>
<path d="M855 2180 c3 -5 8 -10 11 -10 2 0 4 5 4 10 0 6 -5 10 -11 10 -5 0 -7
-4 -4 -10z"/>
<path d="M1590 2178 c0 -4 4 -8 9 -8 6 0 12 4 15 8 3 5 -1 9 -9 9 -8 0 -15 -4
-15 -9z"/>
<path d="M2102 2176 c10 -7 15 -16 11 -20 -4 -4 0 -4 10 0 17 6 17 7 0 20 -10
7 -22 13 -28 13 -5 0 -2 -6 7 -13z"/>
<path d="M2190 2180 c0 -6 7 -10 15 -10 8 0 15 2 15 4 0 2 -7 6 -15 10 -8 3
-15 1 -15 -4z"/>
<path d="M2254 2179 c-4 -7 -3 -9 4 -5 5 3 13 0 15 -6 4 -9 6 -10 6 -1 1 17
-16 25 -25 12z"/>
<path d="M662 2164 c10 -10 20 -16 22 -13 3 3 -5 11 -17 18 -21 13 -21 12 -5
-5z"/>
<path d="M926 2165 c-18 -14 -18 -14 1 -12 11 0 20 7 20 14 0 7 -1 13 -1 13
-1 0 -9 -7 -20 -15z"/>
<path d="M1570 2171 c0 -7 -4 -9 -10 -6 -6 4 -7 -1 -3 -11 6 -15 7 -15 15 1 6
9 7 19 4 22 -3 4 -6 1 -6 -6z"/>
<path d="M1860 2175 c0 -5 5 -17 10 -25 5 -8 10 -10 10 -5 0 6 -5 17 -10 25
-5 8 -10 11 -10 5z"/>
<path d="M1929 2163 c-13 -17 -13 -17 6 -3 11 8 22 16 24 17 2 2 0 3 -6 3 -6
0 -17 -8 -24 -17z"/>
<path d="M1975 2171 c3 -5 -4 -13 -16 -16 -11 -4 -18 -9 -16 -12 8 -7 47 16
47 27 0 6 -5 10 -11 10 -5 0 -8 -4 -4 -9z"/>
<path d="M2171 2164 c0 -11 3 -14 6 -6 3 7 2 16 -1 19 -3 4 -6 -2 -5 -13z"/>
<path d="M750 2160 c0 -5 5 -10 11 -10 5 0 7 5 4 10 -3 6 -8 10 -11 10 -2 0
-4 -4 -4 -10z"/>
<path d="M992 2146 c-16 -20 -16 -20 2 -6 10 8 25 15 33 16 24 4 27 13 4 11
-12 -1 -30 -10 -39 -21z"/>
<path d="M1146 2162 c-3 -5 1 -9 9 -9 8 0 12 4 9 9 -3 4 -7 8 -9 8 -2 0 -6 -4
-9 -8z"/>
<path d="M1630 2161 c0 -6 4 -12 8 -15 5 -3 9 1 9 9 0 8 -4 15 -9 15 -4 0 -8
-4 -8 -9z"/>
<path d="M1776 2158 c3 -5 10 -6 15 -3 13 9 11 12 -6 12 -8 0 -12 -4 -9 -9z"/>
<path d="M2070 2160 c0 -5 10 -14 23 -20 20 -10 20 -10 5 3 -10 8 -15 17 -11
20 3 4 1 7 -5 7 -7 0 -12 -4 -12 -10z"/>
<path d="M1195 2150 c-3 -6 1 -7 9 -4 18 7 21 14 7 14 -6 0 -13 -4 -16 -10z"/>
<path d="M1510 2150 c-13 -8 -12 -10 3 -10 9 0 17 5 17 10 0 12 -1 12 -20 0z"/>
<path d="M2238 2153 c7 -3 16 -2 19 1 4 3 -2 6 -13 5 -11 0 -14 -3 -6 -6z"/>
<path d="M2308 2153 c6 -2 18 -2 25 0 6 3 1 5 -13 5 -14 0 -19 -2 -12 -5z"/>
<path d="M535 2140 c-4 -6 -1 -17 5 -25 6 -8 9 -19 5 -25 -9 -15 -25 -12 -19
4 3 8 0 17 -6 21 -7 4 -9 -2 -6 -20 3 -18 1 -25 -7 -22 -7 2 -11 13 -9 23 2
16 1 16 -7 4 -15 -23 11 -45 36 -31 14 7 24 7 33 -2 12 -10 12 -9 1 6 -7 9
-11 17 -8 17 3 0 13 3 21 6 12 5 15 2 10 -12 -3 -11 2 -7 13 9 11 15 23 24 27
20 4 -4 4 1 0 12 -5 11 -9 14 -12 7 -2 -7 -8 -10 -13 -7 -5 4 -6 -2 -3 -12 5
-17 5 -17 -9 0 -8 9 -17 17 -20 17 -4 0 -3 -8 0 -17 6 -16 5 -16 -10 -5 -8 8
-13 20 -10 28 6 16 -3 19 -12 4z"/>
<path d="M630 2141 c0 -17 21 -24 33 -12 9 9 7 10 -7 5 -13 -5 -17 -4 -12 4 4
7 2 12 -3 12 -6 0 -11 -4 -11 -9z"/>
<path d="M2190 2140 c0 -5 7 -7 15 -4 8 4 15 8 15 10 0 2 -7 4 -15 4 -8 0 -15
-4 -15 -10z"/>
<path d="M2270 2140 c0 -5 5 -10 10 -10 6 0 10 5 10 10 0 6 -4 10 -10 10 -5 0
-10 -4 -10 -10z"/>
<path d="M1125 2130 c-16 -7 -17 -9 -3 -9 9 -1 20 4 23 9 7 11 7 11 -20 0z"/>
<path d="M1177 2129 c7 -7 15 -10 18 -7 3 3 -2 9 -12 12 -14 6 -15 5 -6 -5z"/>
<path d="M750 2121 c0 -5 8 -15 18 -22 15 -12 16 -12 5 2 -7 9 -10 19 -6 22 3
4 1 7 -5 7 -7 0 -12 -4 -12 -9z"/>
<path d="M796 2118 c2 -4 14 -5 26 -3 32 7 32 13 -1 11 -16 0 -27 -4 -25 -8z"/>
<path d="M1070 2118 c0 -4 4 -8 9 -8 6 0 12 4 15 8 3 5 -1 9 -9 9 -8 0 -15 -4
-15 -9z"/>
<path d="M657 2099 c7 -7 15 -10 18 -7 3 3 -2 9 -12 12 -14 6 -15 5 -6 -5z"/>
<path d="M609 2083 c-11 -15 -11 -16 1 -5 16 14 34 16 26 4 -3 -5 1 -9 9 -9
11 0 12 4 4 14 -15 17 -24 16 -40 -4z"/>
<path d="M1614 2492 c4 -3 14 -7 22 -8 9 -1 13 0 10 4 -4 3 -14 7 -22 8 -9 1
-13 0 -10 -4z"/>
<path d="M997 2384 c7 -3 9 -13 6 -22 -6 -14 -5 -15 9 -2 16 15 7 31 -17 29
-5 0 -5 -3 2 -5z"/>
<path d="M1406 2273 c-6 -14 -5 -15 5 -6 7 7 10 15 7 18 -3 3 -9 -2 -12 -12z"/>
<path d="M1090 2699 c0 -5 5 -7 10 -4 6 3 10 8 10 11 0 2 -4 4 -10 4 -5 0 -10
-5 -10 -11z"/>
<path d="M990 2686 c0 -2 7 -7 16 -10 8 -3 12 -2 9 4 -6 10 -25 14 -25 6z"/>
<path d="M975 2660 c-3 -5 -1 -10 4 -10 6 0 11 5 11 10 0 6 -2 10 -4 10 -3 0
-8 -4 -11 -10z"/>
<path d="M913 2613 c0 -9 4 -10 14 -2 7 6 13 12 13 14 0 1 -6 2 -13 2 -8 0
-14 -6 -14 -14z"/>
<path d="M2115 2600 c3 -5 8 -10 11 -10 2 0 4 5 4 10 0 6 -5 10 -11 10 -5 0
-7 -4 -4 -10z"/>
<path d="M795 2570 c-4 -6 -11 -7 -17 -4 -7 4 -8 2 -4 -5 6 -9 11 -9 22 0 14
11 18 19 10 19 -3 0 -8 -5 -11 -10z"/>
<path d="M2256 2501 c-3 -5 2 -15 12 -22 15 -12 16 -12 5 2 -7 9 -10 19 -6 22
3 4 4 7 0 7 -3 0 -8 -4 -11 -9z"/>
<path d="M705 2480 c-3 -6 1 -7 9 -4 18 7 21 14 7 14 -6 0 -13 -4 -16 -10z"/>
<path d="M666 2458 c3 -5 10 -6 15 -3 13 9 11 12 -6 12 -8 0 -12 -4 -9 -9z"/>
<path d="M610 2420 c0 -5 5 -10 11 -10 5 0 7 5 4 10 -3 6 -8 10 -11 10 -2 0
-4 -4 -4 -10z"/>
<path d="M456 2253 c-6 -14 -5 -15 5 -6 7 7 10 15 7 18 -3 3 -9 -2 -12 -12z"/>
<path d="M430 2200 c0 -5 5 -10 11 -10 5 0 7 5 4 10 -3 6 -8 10 -11 10 -2 0
-4 -4 -4 -10z"/>
<path d="M1313 2036 c0 -8 6 -12 14 -9 7 3 10 9 7 14 -8 14 -21 11 -21 -5z"/>
<path d="M1411 2033 c12 -15 12 -16 -3 -10 -10 3 -18 2 -18 -3 0 -11 23 -14
33 -4 8 8 -3 34 -15 34 -6 0 -4 -8 3 -17z"/>
<path d="M1440 2040 c0 -5 5 -10 11 -10 5 0 7 5 4 10 -3 6 -8 10 -11 10 -2 0
-4 -4 -4 -10z"/>
<path d="M1570 2041 c0 -6 4 -13 10 -16 6 -3 7 1 4 9 -7 18 -14 21 -14 7z"/>
<path d="M1631 2047 c2 -1 13 -9 24 -17 19 -14 19 -14 6 3 -7 9 -18 17 -24 17
-6 0 -8 -1 -6 -3z"/>
<path d="M1255 2030 c-3 -6 1 -7 9 -4 18 7 21 14 7 14 -6 0 -13 -4 -16 -10z"/>
<path d="M1491 2033 c-1 -17 16 -25 25 -12 4 7 3 9 -4 5 -5 -3 -13 0 -15 6 -4
9 -6 10 -6 1z"/>
<path d="M1550 2031 c0 -6 4 -13 10 -16 6 -3 7 1 4 9 -7 18 -14 21 -14 7z"/>
<path d="M1066 2022 c-3 -5 1 -9 9 -9 8 0 15 4 15 9 0 4 -4 8 -9 8 -6 0 -12
-4 -15 -8z"/>
<path d="M1350 2023 c0 -6 8 -17 18 -24 16 -13 16 -13 2 6 -8 11 -16 22 -17
24 -2 2 -3 0 -3 -6z"/>
<path d="M1470 2025 c0 -5 5 -17 10 -25 5 -8 10 -10 10 -5 0 6 -5 17 -10 25
-5 8 -10 11 -10 5z"/>
<path d="M1620 2026 c0 -2 8 -10 18 -17 15 -13 16 -12 3 4 -13 16 -21 21 -21
13z"/>
<path d="M1855 2020 c3 -5 8 -10 11 -10 2 0 4 5 4 10 0 6 -5 10 -11 10 -5 0
-7 -4 -4 -10z"/>
<path d="M1895 2020 c3 -5 8 -10 11 -10 2 0 4 5 4 10 0 6 -5 10 -11 10 -5 0
-7 -4 -4 -10z"/>
<path d="M2187 2019 c7 -9 10 -19 6 -22 -3 -4 -1 -7 5 -7 17 0 15 16 -5 31
-16 12 -17 12 -6 -2z"/>
<path d="M2353 2015 c0 -7 6 -11 14 -8 7 3 13 6 13 8 0 2 -6 5 -13 8 -8 3 -14
-1 -14 -8z"/>
<path d="M2395 2021 c-3 -6 3 -14 13 -20 14 -7 19 -6 19 4 0 7 -7 11 -15 7
-10 -3 -13 -1 -8 6 4 7 5 12 2 12 -3 0 -7 -4 -11 -9z"/>
<path d="M995 2011 c-3 -5 -2 -12 3 -15 5 -3 9 1 9 9 0 17 -3 19 -12 6z"/>
<path d="M1235 2000 c2 -27 10 -33 12 -10 1 11 -2 22 -6 24 -4 3 -7 -4 -6 -14z"/>
<path d="M2300 2012 c0 -6 -8 -9 -17 -6 -15 5 -16 4 -3 -5 16 -11 40 3 27 16
-4 3 -7 1 -7 -5z"/>
<path d="M870 1998 c0 -4 4 -8 9 -8 6 0 12 4 15 8 3 5 -1 9 -9 9 -8 0 -15 -4
-15 -9z"/>
<path d="M1286 2002 c-3 -5 1 -9 9 -9 8 0 15 4 15 9 0 4 -4 8 -9 8 -6 0 -12
-4 -15 -8z"/>
<path d="M1326 2001 c-3 -5 1 -11 9 -14 9 -4 12 -1 8 9 -6 16 -10 17 -17 5z"/>
<path d="M1420 1999 c-12 -9 -12 -10 4 -5 14 5 17 3 12 -11 -6 -15 -5 -16 5
-5 18 17 -1 35 -21 21z"/>
<path d="M1526 1998 c3 -4 9 -8 15 -8 5 0 9 4 9 8 0 5 -7 9 -15 9 -8 0 -12 -4
-9 -9z"/>
<path d="M695 1991 c-3 -6 3 -15 14 -20 14 -8 20 -7 24 3 4 10 0 12 -15 8 -14
-3 -19 -1 -14 6 4 7 5 12 2 12 -3 0 -7 -4 -11 -9z"/>
<path d="M799 1998 c-5 -19 -8 -50 -4 -46 7 7 15 48 9 48 -2 0 -4 -1 -5 -2z"/>
<path d="M2234 1986 c1 -8 5 -18 8 -22 4 -3 5 1 4 10 -1 8 -5 18 -8 22 -4 3
-5 -1 -4 -10z"/>
<path d="M385 1980 c-3 -6 1 -7 9 -4 18 7 21 14 7 14 -6 0 -13 -4 -16 -10z"/>
<path d="M420 1986 c0 -2 7 -7 16 -10 8 -3 12 -2 9 4 -6 10 -25 14 -25 6z"/>
<path d="M1630 1976 c7 -7 13 -7 20 0 6 6 3 10 -10 10 -13 0 -16 -4 -10 -10z"/>
<path d="M2136 1982 c-3 -5 1 -9 9 -9 8 0 12 4 9 9 -3 4 -7 8 -9 8 -2 0 -6 -4
-9 -8z"/>
<path d="M2275 1970 c10 -11 20 -20 23 -20 3 0 -3 9 -13 20 -10 11 -20 20 -23
20 -3 0 3 -9 13 -20z"/>
<path d="M2313 1968 c-2 -18 0 -20 7 -8 12 18 13 30 2 30 -4 0 -9 -10 -9 -22z"/>
<path d="M2388 1983 c7 -3 16 -2 19 1 4 3 -2 6 -13 5 -11 0 -14 -3 -6 -6z"/>
<path d="M990 1976 c0 -2 8 -10 18 -17 15 -13 16 -12 3 4 -13 16 -21 21 -21
13z"/>
<path d="M1367 1966 c-4 -9 -3 -15 2 -11 5 3 11 0 13 -7 3 -7 7 -5 11 6 4 9 3
15 -2 11 -5 -3 -11 0 -13 7 -3 7 -7 5 -11 -6z"/>
<path d="M1475 1970 c-3 -6 1 -7 9 -4 18 7 21 14 7 14 -6 0 -13 -4 -16 -10z"/>
<path d="M443 1955 c-13 -10 -13 -14 -3 -20 9 -5 11 -4 6 3 -7 12 5 16 32 13
6 -1 12 2 12 7 0 13 -28 11 -47 -3z"/>
<path d="M504 1961 c3 -5 -1 -14 -9 -21 -8 -7 -15 -17 -15 -23 0 -5 9 0 20 13
22 26 26 40 9 40 -5 0 -8 -4 -5 -9z"/>
<path d="M650 1960 c0 -5 5 -10 10 -10 6 0 10 5 10 10 0 6 -4 10 -10 10 -5 0
-10 -4 -10 -10z"/>
<path d="M1174 1956 c1 -8 5 -18 8 -22 4 -3 5 1 4 10 -1 8 -5 18 -8 22 -4 3
-5 -1 -4 -10z"/>
<path d="M1336 1953 c-6 -14 -5 -15 5 -6 7 7 10 15 7 18 -3 3 -9 -2 -12 -12z"/>
<path d="M1433 1960 c-13 -5 -23 -11 -23 -14 0 -7 40 6 46 15 6 10 6 10 -23
-1z"/>
<path d="M1595 1960 c3 -5 8 -10 11 -10 2 0 4 5 4 10 0 6 -5 10 -11 10 -5 0
-7 -4 -4 -10z"/>
<path d="M2376 1958 c3 -5 10 -6 15 -3 13 9 11 12 -6 12 -8 0 -12 -4 -9 -9z"/>
<path d="M1633 1945 c0 -8 4 -12 9 -9 5 3 6 10 3 15 -9 13 -12 11 -12 -6z"/>
<path d="M695 1941 c-3 -5 0 -13 6 -17 7 -4 9 -3 5 4 -3 5 0 13 6 15 9 4 10 6
1 6 -6 1 -14 -3 -18 -8z"/>
<path d="M756 1935 c-3 -9 -10 -14 -15 -10 -5 3 -12 1 -15 -4 -8 -13 22 -7 36
7 6 6 9 14 6 17 -3 3 -8 -1 -12 -10z"/>
<path d="M1467 1929 c6 -23 9 -24 16 -5 3 8 0 17 -7 19 -10 4 -12 -1 -9 -14z"/>
<path d="M2439 1924 c9 -12 18 -20 20 -18 2 2 -1 10 -8 18 -9 11 -9 15 1 19 7
3 3 4 -8 4 -21 -1 -21 -2 -5 -23z"/>
<path d="M2476 1942 c-3 -5 1 -9 9 -9 8 0 12 4 9 9 -3 4 -7 8 -9 8 -2 0 -6 -4
-9 -8z"/>
<path d="M2520 1940 c8 -5 20 -10 25 -10 6 0 3 5 -5 10 -8 5 -19 10 -25 10 -5
0 -3 -5 5 -10z"/>
<path d="M462 1920 c0 -14 2 -19 5 -12 2 6 2 18 0 25 -3 6 -5 1 -5 -13z"/>
<path d="M1541 1937 c2 -1 13 -10 25 -20 17 -14 21 -14 21 -2 0 8 -4 12 -8 9
-4 -2 -10 0 -14 6 -3 5 -11 10 -17 10 -6 0 -9 -1 -7 -3z"/>
<path d="M2290 1936 c0 -2 8 -10 18 -17 15 -13 16 -12 3 4 -13 16 -21 21 -21
13z"/>
<path d="M353 1915 c0 -8 4 -12 9 -9 5 3 6 10 3 15 -9 13 -12 11 -12 -6z"/>
<path d="M410 1920 c0 -5 5 -10 10 -10 6 0 10 5 10 10 0 6 -4 10 -10 10 -5 0
-10 -4 -10 -10z"/>
<path d="M1407 1919 c7 -7 15 -10 18 -7 3 3 -2 9 -12 12 -14 6 -15 5 -6 -5z"/>
<path d="M2367 1919 c7 -7 15 -10 18 -7 3 3 -2 9 -12 12 -14 6 -15 5 -6 -5z"/>
<path d="M2595 1920 c-3 -5 -1 -10 4 -10 6 0 11 5 11 10 0 6 -2 10 -4 10 -3 0
-8 -4 -11 -10z"/>
<path d="M501 1906 c-9 -11 -66 -27 -106 -30 -5 -1 -16 -7 -24 -14 -10 -10
-16 -10 -27 -1 -11 9 -13 9 -9 -2 3 -9 -6 -21 -24 -32 -62 -36 -78 -70 -41
-82 12 -4 31 1 48 13 69 48 178 76 156 41 -4 -8 -3 -9 5 -5 6 4 9 11 6 16 -3
5 -1 11 4 15 10 5 29 -21 29 -40 0 -5 -5 -17 -11 -25 -11 -13 -10 -13 6 -1 9
8 15 16 12 19 -3 3 1 12 8 20 8 10 8 13 1 9 -7 -4 -14 0 -17 7 -4 10 1 14 14
13 10 -1 19 -6 19 -12 0 -5 5 -3 10 5 8 13 10 13 10 -2 0 -9 4 -20 10 -23 5
-3 7 0 4 9 -5 13 0 14 28 6 48 -14 78 -31 78 -46 0 -7 4 -16 10 -19 6 -4 7 1
3 10 -5 15 -3 15 16 4 11 -8 21 -17 21 -21 0 -5 6 -8 14 -8 20 0 66 -39 66
-56 0 -9 -5 -12 -12 -8 -7 4 -8 3 -4 -5 10 -15 26 -4 26 17 0 13 2 14 9 4 4
-8 12 -14 17 -15 11 -1 39 -28 38 -36 -1 -3 9 -19 22 -34 13 -16 24 -25 24
-20 0 5 -5 14 -12 21 -9 9 -9 12 0 12 7 0 12 5 12 11 0 8 -6 7 -17 -2 -15 -12
-16 -12 -10 3 4 11 2 15 -6 12 -8 -2 -13 4 -14 17 -1 14 2 18 10 11 12 -9 19
-11 77 -14 17 -1 30 -6 30 -11 0 -5 -7 -7 -15 -4 -8 4 -17 1 -21 -5 -4 -7 -9
-6 -14 2 -4 7 -7 -3 -7 -23 1 -23 5 -33 12 -28 13 11 78 7 82 -5 2 -5 -16 -10
-39 -10 -24 0 -62 -3 -85 -6 -35 -4 -45 -1 -58 16 l-16 21 6 -21 c4 -17 1 -21
-17 -20 -13 0 -26 8 -30 16 -6 13 -7 13 -7 0 -1 -9 -10 -16 -22 -17 -14 -1
-19 3 -15 12 3 8 0 17 -6 21 -7 5 -8 2 -3 -6 6 -10 4 -12 -10 -6 -15 5 -16 4
-5 -9 10 -13 9 -15 -9 -15 -15 0 -20 4 -15 13 6 8 3 8 -9 -2 -10 -8 -33 -12
-57 -9 -22 2 -40 -1 -40 -5 0 -5 -8 -3 -17 4 -9 8 -14 9 -11 4 4 -7 -14 -11
-47 -11 -37 -1 -52 3 -48 10 5 8 3 8 -8 0 -8 -6 -21 -11 -29 -11 -8 0 -35 -3
-60 -8 -25 -4 -53 -7 -63 -7 -9 1 -15 -3 -13 -7 3 -4 -6 -17 -19 -29 -26 -22
-49 -92 -41 -120 3 -9 8 -41 11 -70 3 -29 10 -64 15 -78 6 -14 8 -30 4 -35 -3
-5 0 -9 6 -9 6 0 9 -4 6 -9 -3 -5 1 -25 9 -45 9 -20 13 -41 10 -47 -4 -5 -1
-8 7 -7 7 2 12 -3 11 -9 -2 -7 0 -12 5 -11 4 1 22 -6 40 -15 26 -14 57 -18
144 -18 61 0 113 3 116 5 3 3 11 -2 19 -12 8 -9 12 -12 9 -6 -3 7 3 14 14 17
11 3 20 1 20 -5 0 -5 6 -6 13 -1 18 11 91 11 99 -1 5 -8 8 -8 8 -1 0 6 21 11
48 10 33 0 46 -4 44 -13 -1 -8 2 -11 8 -7 6 3 8 11 4 16 -3 6 10 10 33 9 21 0
83 -1 137 -1 55 0 103 -2 108 -5 4 -3 8 -2 8 3 0 12 194 10 202 -2 5 -6 8 -5
8 3 0 16 37 16 43 0 4 -10 6 -10 6 0 1 6 6 12 12 12 5 0 7 -5 3 -12 -5 -7 -3
-8 7 -2 22 13 43 14 51 1 4 -7 8 -7 8 -2 0 15 70 17 70 2 0 -7 4 -6 10 3 9 13
11 13 20 0 6 -10 10 -11 10 -2 0 6 9 12 20 12 11 0 20 -6 20 -12 0 -8 3 -9 8
-3 11 16 72 19 72 3 0 -8 3 -9 8 -3 10 15 55 18 46 3 -5 -7 -3 -8 5 -3 21 13
71 12 83 -2 8 -10 14 -11 25 -1 18 15 47 17 90 8 20 -5 33 -4 33 2 0 5 10 6
21 3 12 -4 48 -7 81 -6 39 0 57 -3 52 -10 -3 -6 3 -5 14 2 17 11 24 10 38 -2
10 -8 15 -9 11 -3 -5 8 5 11 28 11 19 -1 35 -6 35 -12 0 -5 5 -3 10 5 6 10 10
11 10 3 0 -7 5 -13 11 -13 5 0 7 4 4 10 -3 6 -2 10 4 10 5 0 13 -5 16 -10 5
-8 12 -7 23 2 9 7 13 8 9 2 -3 -6 0 -11 8 -11 8 0 12 4 9 9 -3 4 2 8 11 8 10
0 13 -5 9 -12 -6 -10 -4 -10 8 0 11 9 18 10 23 2 3 -5 12 -10 18 -10 8 0 8 3
-1 9 -9 5 -2 10 22 14 42 7 96 42 96 63 0 8 5 14 10 14 6 0 9 3 9 8 -3 19 2
43 9 39 4 -3 7 7 8 21 0 35 7 55 19 64 6 5 5 8 -3 8 -10 0 -10 4 0 23 6 12 11
35 9 51 -2 16 3 32 11 37 10 7 10 9 1 9 -7 0 -13 10 -13 23 0 13 -5 28 -12 35
-7 7 -9 12 -4 12 4 0 -6 12 -23 26 -37 31 -80 44 -143 44 -32 0 -48 4 -48 13
0 8 -3 8 -8 2 -6 -9 -26 -12 -34 -6 -2 1 -30 3 -63 4 -43 1 -62 6 -67 17 -5
12 -7 12 -7 -3 -1 -10 -6 -15 -11 -12 -6 3 -28 7 -50 7 -23 0 -40 5 -40 12 0
7 -3 7 -8 1 -8 -12 -72 -14 -72 -2 0 4 -4 5 -10 2 -6 -3 -10 1 -10 9 0 9 -4
16 -10 16 -5 0 -7 -6 -4 -14 6 -16 -47 -17 -58 -1 -5 6 -8 5 -8 -3 0 -9 -7
-11 -19 -7 -11 3 -51 6 -90 7 -39 1 -71 5 -71 10 0 4 -5 8 -11 8 -5 0 -7 -4
-4 -10 4 -6 -5 -9 -19 -8 -15 1 -26 6 -26 10 0 4 -5 8 -11 8 -5 0 -8 -4 -5 -8
6 -10 -87 -8 -103 2 -6 4 -11 2 -11 -5 0 -7 -7 -4 -16 7 -8 10 -13 14 -10 7 5
-8 -55 -11 -239 -10 -135 1 -245 4 -246 7 0 3 -2 13 -4 23 -3 14 1 17 13 12
13 -5 14 -3 5 6 -13 13 -37 3 -28 -12 4 -5 1 -9 -4 -9 -6 0 -11 -5 -11 -11 0
-5 5 -7 10 -4 5 3 10 1 10 -4 0 -16 -27 -13 -33 3 -3 8 3 26 14 40 17 21 17
25 4 19 -15 -5 -15 -3 -4 16 8 11 17 21 22 21 4 0 6 -4 3 -8 -2 -4 0 -14 5
-22 9 -13 10 -13 8 0 -1 8 -1 20 0 27 1 12 55 36 85 37 11 1 20 7 22 14 1 7 0
8 -3 2 -2 -5 -10 -10 -16 -10 -7 1 -1 10 12 20 17 15 27 17 36 10 10 -8 15 -8
21 1 4 8 3 9 -4 5 -24 -15 -11 12 13 28 17 11 25 13 25 4 0 -6 7 -3 15 8 8 10
15 15 15 9 0 -5 4 -5 8 2 4 6 21 14 37 17 17 2 30 5 30 6 0 1 17 3 38 4 20 1
37 -1 37 -4 0 -4 10 -6 23 -5 32 3 78 -15 70 -28 -3 -6 -1 -7 6 -3 20 13 51
-3 44 -22 -6 -15 -5 -16 12 -2 11 9 16 10 11 3 -4 -8 -2 -13 5 -13 7 0 35 -15
64 -34 28 -19 64 -38 78 -41 15 -4 27 -14 27 -23 0 -13 -3 -12 -20 3 -32 29
-23 8 10 -23 16 -16 26 -33 22 -37 -4 -5 -1 -5 6 -1 6 4 12 3 12 -3 0 -5 -5
-12 -10 -14 -6 -3 -5 -4 2 -3 7 2 13 10 13 19 0 8 4 19 8 23 4 4 7 14 6 23 0
10 -4 7 -10 -8 -7 -19 -12 -21 -24 -11 -28 23 7 48 40 28 6 -3 18 -4 28 -3 24
4 16 -17 -11 -30 -12 -5 -22 -13 -22 -17 0 -4 11 -2 25 4 14 6 25 15 25 20 0
4 5 8 11 8 6 0 8 -7 5 -16 -3 -9 3 -27 14 -41 11 -14 20 -21 20 -15 0 6 -7 18
-16 27 -9 9 -13 19 -9 23 4 4 15 -4 26 -17 11 -13 22 -22 25 -19 2 3 -12 22
-33 42 -21 21 -31 36 -23 34 8 -2 21 -10 28 -18 12 -13 13 -13 8 4 -5 13 -2
17 8 13 8 -3 16 -3 18 1 2 4 24 14 50 23 30 10 45 12 42 5 -3 -6 0 -4 8 5 18
22 161 113 153 97 -3 -7 0 -5 7 4 13 15 34 23 84 33 10 2 19 4 19 5 0 1 12 3
28 4 15 2 27 -2 27 -8 0 -7 4 -6 11 1 11 11 77 -2 89 -18 3 -3 12 -6 20 -6 8
0 34 -12 58 -27 73 -46 118 -6 47 43 -19 13 -32 28 -28 34 3 5 2 7 -4 4 -11
-7 -114 32 -125 48 -5 6 -8 5 -8 -3 0 -7 -5 -10 -10 -7 -6 4 -7 12 -4 18 5 8
3 8 -7 0 -17 -17 -49 -17 -49 0 0 9 -2 9 -8 0 -4 -6 -29 -13 -55 -14 -26 -2
-47 -7 -47 -12 0 -5 -9 -7 -20 -4 -11 3 -18 1 -15 -3 6 -10 -54 -32 -66 -24
-5 3 -6 -3 -2 -12 5 -14 3 -16 -12 -10 -11 4 -16 4 -12 0 10 -10 -31 -36 -45
-28 -6 4 -9 3 -6 -2 3 -5 0 -15 -8 -22 -8 -7 -14 -10 -14 -6 0 3 -7 0 -16 -7
-9 -7 -21 -14 -28 -16 -6 -1 -28 -8 -48 -15 -31 -12 -70 -14 -138 -9 -13 1
-13 2 0 11 9 6 10 10 3 10 -6 0 -15 -5 -19 -11 -4 -8 -9 -7 -15 2 -14 22 -11
26 16 24 14 -2 27 1 30 5 3 5 -4 7 -16 5 -13 -3 -28 0 -35 6 -9 8 -12 4 -10
-15 2 -15 0 -26 -5 -26 -12 0 -29 36 -21 45 4 5 1 5 -6 1 -7 -4 -10 -12 -7
-17 3 -5 -1 -6 -9 -3 -9 3 -13 11 -9 17 3 6 1 7 -5 3 -12 -7 -112 51 -112 65
0 6 -4 8 -9 5 -4 -3 -17 1 -27 9 -10 8 -27 15 -36 15 -10 0 -18 4 -18 8 0 4
-10 8 -22 9 -88 4 -118 9 -118 18 0 5 -4 4 -8 -3 -5 -7 -22 -14 -38 -15 -16
-1 -31 -5 -34 -8 -11 -12 -88 -37 -95 -31 -5 4 -5 1 -1 -5 7 -12 -6 -18 -29
-13 -5 1 -7 -2 -3 -6 12 -12 -12 -33 -29 -27 -9 4 -14 2 -10 -3 3 -5 -12 -19
-34 -31 -22 -12 -39 -17 -39 -10 0 6 -6 3 -12 -6 -7 -9 -27 -19 -44 -20 -17
-2 -37 -8 -44 -12 -9 -5 -11 -4 -6 3 4 7 2 12 -3 12 -6 0 -11 -4 -11 -9 0 -13
-25 -8 -46 9 -15 12 -16 12 -9 1 6 -11 3 -13 -16 -8 -13 4 -30 7 -36 7 -7 0
-13 7 -13 16 0 8 4 13 8 10 5 -3 9 1 9 9 0 10 -4 12 -12 5 -7 -5 -15 -7 -19
-3 -4 4 -4 0 0 -10 3 -9 3 -17 0 -17 -4 0 -11 10 -16 23 -7 18 -9 18 -9 4 -1
-10 -6 -15 -11 -12 -6 4 -8 11 -5 16 3 5 0 7 -7 4 -19 -7 -52 21 -42 37 6 10
4 10 -9 -1 -14 -11 -18 -11 -23 3 -3 9 -13 16 -20 16 -8 0 -17 6 -20 14 -3 9
-12 12 -21 9 -12 -5 -14 -3 -8 7 5 9 4 11 -4 6 -6 -4 -18 -2 -26 4 -8 7 -15 9
-15 5 0 -4 -6 -3 -12 2 -7 6 -21 9 -30 8 -10 -2 -20 0 -22 4 -3 4 -19 6 -36 5
-23 -2 -30 1 -26 12 7 18 2 18 -13 0z m583 -278 c-3 -18 -6 -41 -7 -50 -2 -23
-9 -23 -24 1 -7 12 -21 17 -37 16 -14 -2 -26 1 -26 7 0 6 -6 5 -15 -2 -19 -16
-20 -3 -1 15 7 8 17 11 21 7 3 -4 13 2 21 12 8 11 14 17 14 13 0 -3 10 -2 23
3 35 14 37 12 31 -22z m-50 -145 c-5 -16 -4 -16 8 -3 14 16 87 24 89 9 1 -5 2
-13 3 -18 0 -5 4 -13 8 -16 4 -4 5 3 3 17 -4 20 -1 24 20 24 23 0 30 -8 26
-30 -1 -5 5 -4 13 4 18 14 22 25 6 15 -5 -3 -10 -1 -10 4 0 6 18 11 41 11 28
0 38 -4 33 -12 -5 -7 -3 -8 7 -2 8 5 76 9 152 10 119 1 137 -1 137 -15 1 -14
2 -14 10 1 6 10 19 15 32 13 12 -3 62 -5 112 -6 50 -1 97 -7 105 -13 11 -8 13
-8 7 2 -4 6 -2 12 3 12 6 0 11 -6 11 -12 0 -9 4 -8 10 2 9 13 10 13 11 0 1 -8
1 -18 1 -21 -1 -3 6 -6 13 -6 11 0 12 4 4 14 -11 13 -5 18 16 13 6 -1 25 -2
42 -2 20 0 30 -4 27 -10 -4 -6 1 -6 13 1 14 7 24 7 33 -2 8 -7 10 -8 7 -1 -5
8 9 10 46 7 28 -2 80 -4 115 -5 34 -1 62 -6 62 -11 0 -5 8 -3 17 4 9 8 14 9
10 3 -4 -7 11 -9 50 -6 38 3 54 1 49 -6 -3 -6 -2 -14 4 -17 6 -4 9 -1 8 7 -2
8 6 12 22 11 14 -1 49 -3 77 -5 39 -2 53 -7 53 -18 0 -9 3 -11 8 -5 10 14 42
18 42 5 0 -6 4 -9 9 -6 11 7 26 -11 36 -43 6 -18 4 -22 -6 -15 -12 7 -12 5 -1
-9 17 -20 7 -57 -19 -75 -11 -7 -19 -18 -19 -24 0 -7 6 -4 13 7 10 12 16 14
21 7 4 -7 3 -12 -1 -12 -5 0 -9 -8 -9 -17 -1 -30 -8 -47 -24 -61 -8 -8 -9 -11
-2 -7 6 3 12 1 12 -5 0 -11 -28 -70 -34 -70 -1 0 -2 22 -1 50 1 27 -1 47 -4
44 -3 -3 -7 -23 -7 -45 -1 -21 -2 -43 -3 -49 0 -5 -41 -9 -91 -9 -63 0 -88 3
-84 11 5 7 2 8 -7 2 -20 -12 -99 -12 -99 0 0 6 -5 5 -12 -2 -7 -7 -17 -12 -23
-12 -5 0 -3 5 5 10 9 6 10 10 3 10 -6 0 -14 -4 -17 -9 -7 -10 -25 -9 -43 2 -7
5 -13 4 -13 -1 0 -5 -19 -7 -42 -5 -24 2 -148 4 -275 4 -170 1 -231 5 -226 13
5 8 3 8 -8 0 -20 -17 -238 -17 -258 -1 -12 10 -13 9 -7 -1 6 -10 -13 -12 -93
-10 -63 2 -101 -1 -101 -7 0 -5 -5 -3 -10 5 -8 13 -10 13 -10 1 0 -11 -4 -10
-16 5 -8 10 -13 13 -9 7 3 -7 3 -13 -2 -14 -64 -6 -100 -3 -111 11 -11 13 -12
13 -10 0 2 -8 -4 -15 -12 -15 -9 0 -14 8 -12 20 2 17 0 17 -11 -4 -10 -17 -16
-20 -22 -11 -5 8 -10 9 -18 1 -15 -15 -30 -14 -21 2 6 9 5 9 -7 0 -21 -16
-220 -17 -231 -1 -6 10 -8 9 -8 -3 0 -20 -110 -20 -137 2 -16 13 -17 13 -4 -3
12 -16 11 -18 -8 -18 -12 0 -20 4 -17 8 2 4 -4 8 -14 8 -10 0 -16 -4 -13 -8 8
-15 -49 0 -67 17 -22 20 -31 60 -16 76 8 9 8 10 -1 5 -17 -9 -28 15 -12 25 11
7 11 9 -3 9 -11 0 -16 6 -13 20 2 11 0 20 -4 20 -4 0 -7 16 -6 35 0 19 -2 35
-6 35 -3 0 -6 23 -5 50 0 36 4 49 13 46 7 -3 10 1 7 8 -7 17 10 28 50 33 17 2
39 6 50 9 12 4 16 2 12 -5 -4 -6 -2 -11 3 -11 6 0 11 4 11 9 0 5 33 9 73 8 41
0 78 2 83 5 15 8 108 3 123 -6 10 -6 12 -5 7 2 -10 16 7 15 23 0 11 -10 13
-10 7 0 -5 8 1 12 20 12 22 0 24 -3 15 -14 -8 -10 -9 -16 -1 -21 6 -4 9 -1 8
7 -2 7 3 12 10 10 8 -1 11 2 7 7 -3 7 29 11 87 14 51 1 96 4 100 5 4 1 5 -6 2
-15z m916 -447 c0 -3 -4 -8 -10 -11 -5 -3 -10 -1 -10 4 0 6 5 11 10 11 6 0 10
-2 10 -4z"/>
<path d="M1050 1631 c0 -7 -4 -10 -8 -7 -4 2 -14 1 -21 -3 -9 -6 -10 -11 -2
-15 6 -4 11 -3 11 1 0 5 9 9 19 10 14 1 18 -3 14 -13 -3 -8 -3 -14 0 -14 13 0
14 30 1 40 -11 10 -14 10 -14 1z"/>
<path d="M1093 1471 c0 -11 5 -18 9 -15 4 3 5 11 1 19 -7 21 -12 19 -10 -4z"/>
<path d="M1496 1478 c3 -5 10 -6 15 -3 13 9 11 12 -6 12 -8 0 -12 -4 -9 -9z"/>
<path d="M950 1456 c7 -7 13 -7 20 0 6 6 3 10 -10 10 -13 0 -16 -4 -10 -10z"/>
<path d="M716 1447 c3 -10 9 -15 12 -12 3 3 0 11 -7 18 -10 9 -11 8 -5 -6z"/>
<path d="M384 1439 c-4 -8 54 -4 62 4 3 2 -9 4 -26 3 -18 0 -34 -4 -36 -7z"/>
<path d="M1006 1438 c3 -5 10 -6 15 -3 13 9 11 12 -6 12 -8 0 -12 -4 -9 -9z"/>
<path d="M2206 1442 c-3 -5 1 -9 9 -9 8 0 12 4 9 9 -3 4 -7 8 -9 8 -2 0 -6 -4
-9 -8z"/>
<path d="M2340 1446 c0 -2 8 -10 18 -17 15 -13 16 -12 3 4 -13 16 -21 21 -21
13z"/>
<path d="M2255 1421 c-3 -5 -2 -12 3 -15 5 -3 9 1 9 9 0 17 -3 19 -12 6z"/>
<path d="M2473 1423 c4 -3 1 -13 -6 -22 -11 -14 -10 -14 5 -2 16 12 16 31 1
31 -4 0 -3 -3 0 -7z"/>
<path d="M2511 1413 c7 -12 15 -20 18 -17 3 2 -3 12 -13 22 -17 16 -18 16 -5
-5z"/>
<path d="M2541 1394 c0 -11 3 -14 6 -6 3 7 2 16 -1 19 -3 4 -6 -2 -5 -13z"/>
<path d="M336 1366 c7 -19 20 -21 30 -3 4 6 4 9 -1 5 -4 -4 -14 -3 -22 4 -11
8 -12 7 -7 -6z"/>
<path d="M2574 1360 c0 -15 4 -16 18 -9 10 5 18 13 18 16 0 3 -3 3 -7 0 -3 -4
-11 -3 -17 3 -8 6 -12 3 -12 -10z"/>
<path d="M359 1333 c-13 -16 -12 -17 4 -4 9 7 17 15 17 17 0 8 -8 3 -21 -13z"/>
<path d="M2599 1333 c-12 -16 -12 -17 2 -6 9 7 20 9 24 5 5 -4 5 -1 1 6 -9 16
-11 15 -27 -5z"/>
<path d="M393 1325 c0 -8 4 -15 9 -15 4 0 8 4 8 9 0 6 -4 12 -8 15 -5 3 -9 -1
-9 -9z"/>
<path d="M355 1280 c3 -5 8 -10 11 -10 2 0 4 5 4 10 0 6 -5 10 -11 10 -5 0 -7
-4 -4 -10z"/>
<path d="M390 1279 c0 -5 5 -7 10 -4 6 3 10 8 10 11 0 2 -4 4 -10 4 -5 0 -10
-5 -10 -11z"/>
<path d="M2535 1251 c-3 -5 -2 -12 3 -15 5 -3 9 1 9 9 0 17 -3 19 -12 6z"/>
<path d="M410 1219 c0 -5 5 -7 10 -4 6 3 10 8 10 11 0 2 -4 4 -10 4 -5 0 -10
-5 -10 -11z"/>
<path d="M2520 1180 c-9 -6 -10 -10 -3 -10 6 0 15 5 18 10 8 12 4 12 -15 0z"/>
<path d="M435 1171 c-3 -6 -15 -8 -27 -6 -11 3 -18 2 -14 -2 3 -3 0 -13 -6
-22 -10 -12 -7 -12 8 2 11 9 23 15 26 12 3 -3 11 1 18 10 7 8 10 15 7 15 -3 0
-8 -4 -12 -9z"/>
<path d="M515 1169 c-4 -6 -5 -12 -2 -15 2 -3 7 2 10 11 7 17 1 20 -8 4z"/>
<path d="M1236 1167 c3 -10 9 -15 12 -12 3 3 0 11 -7 18 -10 9 -11 8 -5 -6z"/>
<path d="M470 1160 c0 -5 5 -10 11 -10 5 0 7 5 4 10 -3 6 -8 10 -11 10 -2 0
-4 -4 -4 -10z"/>
<path d="M1141 1156 c-9 -11 -9 -16 1 -22 7 -4 10 -4 6 1 -4 4 -3 14 3 22 6 7
9 13 6 13 -2 0 -10 -6 -16 -14z"/>
<path d="M1885 1160 c-3 -6 1 -7 9 -4 18 7 21 14 7 14 -6 0 -13 -4 -16 -10z"/>
<path d="M2015 1151 c-3 -5 -2 -12 3 -15 5 -3 9 1 9 9 0 17 -3 19 -12 6z"/>
<path d="M2253 1145 c0 -8 4 -12 9 -9 5 3 6 10 3 15 -9 13 -12 11 -12 -6z"/>
<path d="M1366 1142 c-3 -5 1 -9 9 -9 8 0 12 4 9 9 -3 4 -7 8 -9 8 -2 0 -6 -4
-9 -8z"/>
<path d="M1847 1139 c7 -7 15 -10 18 -7 3 3 -2 9 -12 12 -14 6 -15 5 -6 -5z"/>
<path d="M2107 1139 c7 -7 15 -10 18 -7 3 3 -2 9 -12 12 -14 6 -15 5 -6 -5z"/>
<path d="M2350 1140 c0 -5 5 -10 11 -10 5 0 7 5 4 10 -3 6 -8 10 -11 10 -2 0
-4 -4 -4 -10z"/>
<path d="M2069 1123 c-13 -16 -12 -17 4 -4 16 13 21 21 13 21 -2 0 -10 -8 -17
-17z"/>
<path d="M456 1118 c3 -4 11 -5 19 -1 21 7 19 12 -4 10 -11 0 -18 -5 -15 -9z"/>
<path d="M710 1121 c0 -6 4 -12 8 -15 5 -3 9 1 9 9 0 8 -4 15 -9 15 -4 0 -8
-4 -8 -9z"/>
<path d="M1025 1120 c-3 -6 1 -7 9 -4 18 7 21 14 7 14 -6 0 -13 -4 -16 -10z"/>
<path d="M1310 1119 c0 -5 5 -7 10 -4 6 3 10 8 10 11 0 2 -4 4 -10 4 -5 0 -10
-5 -10 -11z"/>
<path d="M1526 1122 c-3 -5 1 -9 9 -9 8 0 12 4 9 9 -3 4 -7 8 -9 8 -2 0 -6 -4
-9 -8z"/>
<path d="M1686 1122 c-3 -5 1 -9 9 -9 8 0 12 4 9 9 -3 4 -7 8 -9 8 -2 0 -6 -4
-9 -8z"/>
<path d="M1770 1120 c0 -5 5 -10 11 -10 5 0 7 5 4 10 -3 6 -8 10 -11 10 -2 0
-4 -4 -4 -10z"/>
<path d="M2193 1115 c0 -8 4 -12 9 -9 5 3 6 10 3 15 -9 13 -12 11 -12 -6z"/>
<path d="M2456 1118 c3 -5 10 -6 15 -3 13 9 11 12 -6 12 -8 0 -12 -4 -9 -9z"/>
<path d="M575 1100 c3 -5 8 -10 11 -10 2 0 4 5 4 10 0 6 -5 10 -11 10 -5 0 -7
-4 -4 -10z"/>
<path d="M2273 1907 c0 -8 6 -14 14 -14 9 0 10 4 2 14 -6 7 -12 13 -14 13 -1
0 -2 -6 -2 -13z"/>
<path d="M586 1902 c-3 -5 1 -9 9 -9 8 0 15 4 15 9 0 4 -4 8 -9 8 -6 0 -12 -4
-15 -8z"/>
<path d="M694 1899 c-3 -6 -1 -16 5 -22 9 -9 10 -7 5 7 -6 15 -4 17 6 11 9 -5
11 -4 6 3 -9 15 -13 15 -22 1z"/>
<path d="M855 1901 c-3 -5 -2 -12 3 -15 5 -3 9 1 9 9 0 17 -3 19 -12 6z"/>
<path d="M1518 1903 c7 -3 16 -2 19 1 4 3 -2 6 -13 5 -11 0 -14 -3 -6 -6z"/>
<path d="M1686 1898 c3 -5 10 -6 15 -3 13 9 11 12 -6 12 -8 0 -12 -4 -9 -9z"/>
<path d="M2190 1900 c0 -5 5 -10 11 -10 5 0 7 5 4 10 -3 6 -8 10 -11 10 -2 0
-4 -4 -4 -10z"/>
<path d="M2530 1900 c0 -5 5 -10 11 -10 5 0 7 5 4 10 -3 6 -8 10 -11 10 -2 0
-4 -4 -4 -10z"/>
<path d="M1255 1880 c-3 -5 -1 -10 4 -10 6 0 11 5 11 10 0 6 -2 10 -4 10 -3 0
-8 -4 -11 -10z"/>
<path d="M1316 1882 c-3 -5 1 -9 9 -9 8 0 12 4 9 9 -3 4 -7 8 -9 8 -2 0 -6 -4
-9 -8z"/>
<path d="M1786 1878 c3 -5 10 -6 15 -3 13 9 11 12 -6 12 -8 0 -12 -4 -9 -9z"/>
<path d="M2216 1873 c-6 -14 -5 -15 5 -6 7 7 10 15 7 18 -3 3 -9 -2 -12 -12z"/>
<path d="M830 1841 c0 -6 4 -13 10 -16 6 -3 7 1 4 9 -7 18 -14 21 -14 7z"/>
<path d="M2173 1835 c0 -8 4 -12 9 -9 5 3 6 10 3 15 -9 13 -12 11 -12 -6z"/>
<path d="M1176 1793 c-6 -14 -5 -15 5 -6 7 7 10 15 7 18 -3 3 -9 -2 -12 -12z"/>
<path d="M1796 1802 c-3 -5 1 -9 9 -9 8 0 12 4 9 9 -3 4 -7 8 -9 8 -2 0 -6 -4
-9 -8z"/>
<path d="M2065 1800 c-3 -6 1 -7 9 -4 18 7 21 14 7 14 -6 0 -13 -4 -16 -10z"/>
<path d="M2099 1793 c-13 -16 -12 -17 4 -4 9 7 17 15 17 17 0 8 -8 3 -21 -13z"/>
<path d="M2406 1798 c3 -5 9 -7 12 -4 3 3 12 0 21 -6 13 -10 14 -10 4 2 -15
16 -46 23 -37 8z"/>
<path d="M1110 1796 c0 -2 8 -10 18 -17 15 -13 16 -12 3 4 -13 16 -21 21 -21
13z"/>
<path d="M1519 1798 c-5 -18 -6 -38 -1 -34 7 8 12 36 6 36 -2 0 -4 -1 -5 -2z"/>
<path d="M1549 1783 c-13 -16 -12 -17 4 -4 9 7 17 15 17 17 0 8 -8 3 -21 -13z"/>
<path d="M545 1780 c-3 -6 1 -7 9 -4 18 7 21 14 7 14 -6 0 -13 -4 -16 -10z"/>
<path d="M633 1773 c0 -9 4 -10 14 -2 7 6 13 12 13 14 0 1 -6 2 -13 2 -8 0
-14 -6 -14 -14z"/>
<path d="M1443 1778 c-11 -19 -13 -39 -1 -32 5 3 7 9 4 12 -3 3 -1 11 5 19 6
7 9 13 6 13 -3 0 -9 -6 -14 -12z"/>
<path d="M1478 1783 c7 -3 16 -2 19 1 4 3 -2 6 -13 5 -11 0 -14 -3 -6 -6z"/>
<path d="M1930 1780 c0 -5 5 -10 11 -10 5 0 7 5 4 10 -3 6 -8 10 -11 10 -2 0
-4 -4 -4 -10z"/>
<path d="M456 1767 c3 -10 9 -15 12 -12 3 3 0 11 -7 18 -10 9 -11 8 -5 -6z"/>
<path d="M569 1763 c-13 -16 -12 -17 4 -4 16 13 21 21 13 21 -2 0 -10 -8 -17
-17z"/>
<path d="M1571 1767 c-8 -10 -7 -14 2 -14 8 0 14 6 14 14 0 7 -1 13 -2 13 -2
0 -8 -6 -14 -13z"/>
<path d="M2055 1771 c-3 -5 -2 -12 3 -15 5 -3 9 1 9 9 0 17 -3 19 -12 6z"/>
<path d="M419 1768 c-5 -18 -6 -38 -1 -34 7 8 12 36 6 36 -2 0 -4 -1 -5 -2z"/>
<path d="M659 1753 c-13 -16 -12 -17 4 -4 9 7 17 15 17 17 0 8 -8 3 -21 -13z"/>
<path d="M1066 1755 c4 -8 11 -15 16 -15 6 0 5 6 -2 15 -7 8 -14 15 -16 15 -2
0 -1 -7 2 -15z"/>
<path d="M2010 1758 c0 -4 4 -8 9 -8 6 0 12 4 15 8 3 5 -1 9 -9 9 -8 0 -15 -4
-15 -9z"/>
<path d="M2310 1766 c0 -2 7 -7 16 -10 8 -3 12 -2 9 4 -6 10 -25 14 -25 6z"/>
<path d="M590 1756 c0 -2 8 -10 18 -17 15 -13 16 -12 3 4 -13 16 -21 21 -21
13z"/>
<path d="M935 1749 c-4 -6 -5 -12 -2 -15 2 -3 7 2 10 11 7 17 1 20 -8 4z"/>
<path d="M1310 1756 c0 -2 8 -10 18 -17 15 -13 16 -12 3 4 -13 16 -21 21 -21
13z"/>
<path d="M1547 1739 c7 -7 15 -10 18 -7 3 3 -2 9 -12 12 -14 6 -15 5 -6 -5z"/>
<path d="M1596 1742 c-2 -4 -1 -14 4 -22 7 -11 9 -9 7 8 -1 24 -3 26 -11 14z"/>
<path d="M1280 1709 c0 -5 -4 -8 -9 -4 -5 3 -13 0 -17 -6 -5 -8 -3 -9 6 -4 10
6 12 3 7 -11 -7 -18 -6 -18 6 -2 8 10 17 15 21 11 4 -4 4 0 0 10 -7 19 -14 22
-14 6z"/>
<path d="M1655 1709 c-4 -6 -5 -12 -2 -15 2 -3 7 2 10 11 7 17 1 20 -8 4z"/>
<path d="M710 1696 c7 -7 13 -7 20 0 6 6 3 10 -10 10 -13 0 -16 -4 -10 -10z"/>
<path d="M786 1697 c3 -10 9 -15 12 -12 3 3 0 11 -7 18 -10 9 -11 8 -5 -6z"/>
<path d="M1410 1699 c0 -5 5 -7 10 -4 6 3 10 8 10 11 0 2 -4 4 -10 4 -5 0 -10
-5 -10 -11z"/>
<path d="M1535 1700 c3 -5 8 -10 11 -10 2 0 4 5 4 10 0 6 -5 10 -11 10 -5 0
-7 -4 -4 -10z"/>
<path d="M1710 1700 c0 -5 5 -10 10 -10 6 0 10 5 10 10 0 6 -4 10 -10 10 -5 0
-10 -4 -10 -10z"/>
<path d="M1326 1685 c-18 -14 -18 -14 1 -12 11 0 20 7 20 14 0 7 -1 13 -1 13
-1 0 -9 -7 -20 -15z"/>
<path d="M2235 1691 c-3 -5 -2 -12 3 -15 5 -3 9 1 9 9 0 17 -3 19 -12 6z"/>
<path d="M516 1682 c-3 -5 1 -9 9 -9 8 0 12 4 9 9 -3 4 -7 8 -9 8 -2 0 -6 -4
-9 -8z"/>
<path d="M726 1681 c-19 -7 -19 -8 0 -13 13 -3 21 0 21 8 0 8 -1 14 -1 13 -1
0 -10 -4 -20 -8z"/>
<path d="M1217 1673 c5 -15 3 -16 -8 -5 -7 6 -17 12 -23 12 -5 0 -1 -6 9 -14
11 -8 23 -12 27 -10 11 7 10 34 -2 34 -5 0 -7 -8 -3 -17z"/>
<path d="M1770 1680 c0 -5 5 -10 11 -10 5 0 7 5 4 10 -3 6 -8 10 -11 10 -2 0
-4 -4 -4 -10z"/>
<path d="M1750 1671 c0 -6 4 -13 10 -16 6 -3 7 1 4 9 -7 18 -14 21 -14 7z"/>
<path d="M2150 1670 c-11 -7 -11 -10 -2 -10 7 0 10 -4 7 -10 -4 -6 1 -7 11 -3
11 4 13 8 6 11 -7 2 -10 8 -6 13 7 11 3 11 -16 -1z"/>
<path d="M2193 1667 c0 -8 6 -14 14 -14 9 0 10 4 2 14 -6 7 -12 13 -14 13 -1
0 -2 -6 -2 -13z"/>
<path d="M616 1658 c3 -5 10 -6 15 -3 13 9 11 12 -6 12 -8 0 -12 -4 -9 -9z"/>
<path d="M1150 1660 c0 -5 5 -10 10 -10 6 0 10 5 10 10 0 6 -4 10 -10 10 -5 0
-10 -4 -10 -10z"/>
<path d="M1667 1659 c7 -7 15 -10 18 -7 3 3 -2 9 -12 12 -14 6 -15 5 -6 -5z"/>
<path d="M2086 1645 c-9 -13 -16 -28 -16 -32 0 -4 8 4 18 20 10 15 22 24 27
20 4 -5 5 -2 1 5 -10 16 -11 16 -30 -13z"/>
<path d="M853 1650 c2 -8 0 -24 -6 -35 -9 -19 -8 -19 8 -4 14 14 15 21 6 35
-7 11 -10 13 -8 4z"/>
<path d="M1790 1645 c0 -8 4 -15 10 -15 5 0 7 7 4 15 -4 8 -8 15 -10 15 -2 0
-4 -7 -4 -15z"/>
<path d="M737 1636 c-4 -11 -1 -13 10 -9 12 5 14 3 8 -7 -5 -9 -4 -11 4 -6 9
6 9 11 0 22 -14 17 -16 17 -22 0z"/>
<path d="M792 1636 c7 -8 15 -12 17 -11 5 6 -10 25 -20 25 -5 0 -4 -6 3 -14z"/>
<path d="M831 1634 c0 -11 3 -14 6 -6 3 7 2 16 -1 19 -3 4 -6 -2 -5 -13z"/>
<path d="M1176 1634 c-4 -9 -4 -19 -1 -22 2 -3 7 3 11 12 3 9 11 13 17 9 6 -3
7 -1 3 5 -10 17 -23 15 -30 -4z"/>
<path d="M1240 1640 c8 -5 20 -10 25 -10 6 0 3 5 -5 10 -8 5 -19 10 -25 10 -5
0 -3 -5 5 -10z"/>
<path d="M1719 1633 c-13 -17 -13 -17 6 -3 11 8 22 16 24 17 2 2 0 3 -6 3 -6
0 -17 -8 -24 -17z"/>
<path d="M2040 1640 c0 -5 5 -10 10 -10 6 0 10 5 10 10 0 6 -4 10 -10 10 -5 0
-10 -4 -10 -10z"/>
<path d="M2121 1633 c-5 -10 -13 -17 -18 -15 -4 1 -8 -8 -8 -20 0 -16 6 -22
27 -22 14 -1 24 2 21 7 -3 5 -14 7 -24 4 -14 -4 -19 0 -19 15 0 10 4 17 9 13
6 -3 15 4 21 15 13 24 5 27 -9 3z"/>
<path d="M635 1630 c-4 -6 -11 -7 -17 -4 -7 4 -8 2 -4 -5 6 -9 11 -9 22 0 14
11 18 19 10 19 -3 0 -8 -5 -11 -10z"/>
<path d="M1675 1631 c3 -5 0 -11 -7 -13 -7 -3 -5 -7 6 -11 9 -4 15 -3 11 2 -3
5 0 11 7 13 7 3 5 7 -6 11 -9 4 -15 3 -11 -2z"/>
<path d="M1752 1631 c-11 -7 -10 -9 3 -14 9 -4 14 -3 10 2 -3 5 1 12 7 14 7 3
9 6 3 6 -5 0 -16 -3 -23 -8z"/>
<path d="M1216 1622 c-9 -8 -7 -40 2 -45 4 -3 16 0 27 4 18 9 18 9 -2 5 -17
-3 -23 1 -23 14 0 13 5 17 20 13 11 -3 20 -3 20 0 0 7 -38 16 -44 9z"/>
<path d="M1340 1626 c0 -2 8 -10 18 -17 15 -13 16 -12 3 4 -13 16 -21 21 -21
13z"/>
<path d="M1808 1605 c-6 -14 -15 -25 -20 -25 -5 0 -4 10 2 23 11 21 10 21 -4
3 -15 -19 -13 -36 5 -36 5 0 14 11 21 25 6 13 15 22 21 18 6 -3 7 -1 3 5 -10
17 -15 15 -28 -13z"/>
<path d="M2020 1622 c0 -6 9 -12 20 -15 11 -3 20 -11 20 -17 0 -9 -4 -9 -17 1
-15 12 -16 12 -8 -1 6 -8 10 -18 10 -22 0 -3 3 -9 8 -12 4 -3 5 -3 2 1 -3 3 0
12 6 19 6 7 8 18 4 24 -9 15 -45 32 -45 22z"/>
<path d="M2295 1620 c-3 -5 -1 -10 4 -10 6 0 11 5 11 10 0 6 -2 10 -4 10 -3 0
-8 -4 -11 -10z"/>
<path d="M1274 1603 c1 -7 6 -16 11 -20 4 -5 5 -2 0 6 -6 10 -4 13 7 9 8 -4
15 -1 15 6 0 6 -8 12 -17 12 -10 0 -17 -6 -16 -13z"/>
<path d="M1613 1605 c0 -8 3 -13 5 -10 3 3 12 -1 21 -7 10 -8 9 -4 -3 10 -23
26 -23 26 -23 7z"/>
<path d="M2209 1603 c-13 -16 -12 -17 4 -4 9 7 17 15 17 17 0 8 -8 3 -21 -13z"/>
<path d="M636 1593 c-6 -14 -5 -15 5 -6 7 7 10 15 7 18 -3 3 -9 -2 -12 -12z"/>
<path d="M713 1595 c0 -8 4 -12 9 -9 4 3 8 9 8 15 0 5 -4 9 -8 9 -5 0 -9 -7
-9 -15z"/>
<path d="M770 1600 c0 -5 5 -10 10 -10 6 0 10 5 10 10 0 6 -4 10 -10 10 -5 0
-10 -4 -10 -10z"/>
<path d="M810 1600 c0 -5 5 -10 10 -10 6 0 10 5 10 10 0 6 -4 10 -10 10 -5 0
-10 -4 -10 -10z"/>
<path d="M870 1603 c1 -8 50 -47 50 -40 0 2 -8 14 -19 25 -19 22 -31 28 -31
15z"/>
<path d="M1320 1606 c0 -2 8 -10 18 -17 15 -13 16 -12 3 4 -13 16 -21 21 -21
13z"/>
<path d="M1720 1595 c-19 -22 -8 -25 13 -3 9 10 13 18 8 18 -5 0 -14 -7 -21
-15z"/>
<path d="M2150 1600 c0 -5 5 -10 11 -10 5 0 7 5 4 10 -3 6 -8 10 -11 10 -2 0
-4 -4 -4 -10z"/>
<path d="M2373 1591 c0 -11 5 -18 9 -15 4 3 5 11 1 19 -7 21 -12 19 -10 -4z"/>
<path d="M2540 1606 c0 -2 8 -10 18 -17 15 -13 16 -12 3 4 -13 16 -21 21 -21
13z"/>
<path d="M1150 1590 c-8 -5 -10 -10 -5 -10 6 0 17 5 25 10 8 5 11 10 5 10 -5
0 -17 -5 -25 -10z"/>
<path d="M1395 1591 c-3 -5 -2 -12 3 -15 5 -3 9 1 9 9 0 17 -3 19 -12 6z"/>
<path d="M1830 1590 c0 -5 5 -10 10 -10 6 0 10 5 10 10 0 6 -4 10 -10 10 -5 0
-10 -4 -10 -10z"/>
<path d="M1935 1590 c-3 -5 -1 -10 4 -10 6 0 11 5 11 10 0 6 -2 10 -4 10 -3 0
-8 -4 -11 -10z"/>
<path d="M450 1580 c0 -5 5 -10 11 -10 5 0 7 5 4 10 -3 6 -8 10 -11 10 -2 0
-4 -4 -4 -10z"/>
<path d="M490 1580 c0 -5 5 -10 11 -10 5 0 7 5 4 10 -3 6 -8 10 -11 10 -2 0
-4 -4 -4 -10z"/>
<path d="M1735 1579 c-4 -6 -5 -12 -2 -15 2 -3 7 2 10 11 7 17 1 20 -8 4z"/>
<path d="M1897 1573 c-3 -5 6 -9 20 -10 19 -1 22 1 12 8 -17 11 -26 11 -32 2z"/>
<path d="M2120 1560 c0 -5 5 -10 11 -10 5 0 7 5 4 10 -3 6 -8 10 -11 10 -2 0
-4 -4 -4 -10z"/>
<path d="M2319 1553 c-13 -16 -12 -17 4 -4 9 7 17 15 17 17 0 8 -8 3 -21 -13z"/>
<path d="M256 1227 c3 -10 9 -15 12 -12 3 3 0 11 -7 18 -10 9 -11 8 -5 -6z"/>
<path d="M2690 1200 c0 -5 5 -10 11 -10 5 0 7 5 4 10 -3 6 -8 10 -11 10 -2 0
-4 -4 -4 -10z"/>
<path d="M1430 1020 c0 -5 5 -10 10 -10 6 0 10 5 10 10 0 6 -4 10 -10 10 -5 0
-10 -4 -10 -10z"/>
<path d="M1515 1020 c-3 -5 -1 -10 4 -10 6 0 11 5 11 10 0 6 -2 10 -4 10 -3 0
-8 -4 -11 -10z"/>
<path d="M1600 1021 c0 -8 -7 -11 -17 -6 -15 5 -16 4 -5 -6 9 -10 15 -10 24
-1 6 6 9 15 5 19 -4 3 -7 1 -7 -6z"/>
<path d="M1670 1020 c0 -5 5 -10 10 -10 6 0 10 5 10 10 0 6 -4 10 -10 10 -5 0
-10 -4 -10 -10z"/>
<path d="M1734 1015 c-4 -8 -10 -13 -14 -10 -5 3 -12 0 -16 -6 -4 -7 -3 -9 4
-5 5 3 12 1 14 -5 2 -6 9 0 16 15 6 14 9 26 6 26 -2 0 -7 -7 -10 -15z"/>
<path d="M1756 1013 c-6 -14 -5 -15 5 -6 7 7 10 15 7 18 -3 3 -9 -2 -12 -12z"/>
<path d="M1985 1019 c-6 -8 -4 -10 5 -4 10 6 12 4 6 -11 -6 -15 -5 -17 5 -6 9
9 10 15 2 23 -8 8 -13 7 -18 -2z"/>
<path d="M891 1004 c0 -11 3 -14 6 -6 3 7 2 16 -1 19 -3 4 -6 -2 -5 -13z"/>
<path d="M954 1006 c1 -8 5 -18 8 -22 4 -3 5 1 4 10 -1 8 -5 18 -8 22 -4 3 -5
-1 -4 -10z"/>
<path d="M1237 1013 c-10 -10 -8 -23 4 -23 5 0 8 4 5 9 -4 5 0 12 6 14 7 3 8
6 2 6 -6 1 -14 -2 -17 -6z"/>
<path d="M1786 1005 c-11 -8 -15 -15 -9 -15 6 0 16 7 23 15 16 19 11 19 -14 0z"/>
<path d="M2180 1016 c0 -2 7 -7 16 -10 8 -3 12 -2 9 4 -6 10 -25 14 -25 6z"/>
<path d="M2257 999 c4 -13 8 -18 11 -10 2 7 -1 18 -6 23 -8 8 -9 4 -5 -13z"/>
<path d="M476 998 c3 -5 10 -6 15 -3 13 9 11 12 -6 12 -8 0 -12 -4 -9 -9z"/>
<path d="M518 998 c-9 -5 -6 -7 9 -5 12 2 25 6 28 8 8 9 -23 6 -37 -3z"/>
<path d="M594 1003 c3 -4 0 -13 -6 -22 -10 -12 -7 -12 8 2 11 9 23 16 25 15 2
-2 3 -1 1 1 -1 3 -10 6 -18 7 -9 1 -13 0 -10 -3z"/>
<path d="M724 1002 c4 -3 14 -7 22 -8 9 -1 13 0 10 4 -4 3 -14 7 -22 8 -9 1
-13 0 -10 -4z"/>
<path d="M790 1003 c0 -6 8 -17 18 -24 16 -13 16 -13 2 6 -8 11 -16 22 -17 24
-2 2 -3 0 -3 -6z"/>
<path d="M1477 995 c-4 -8 -1 -17 5 -21 7 -5 8 -2 3 6 -6 10 -4 12 10 6 15 -5
16 -4 5 9 -15 19 -16 19 -23 0z"/>
<path d="M1627 991 c-4 -17 -3 -21 5 -13 5 5 8 16 6 23 -3 8 -7 3 -11 -10z"/>
<path d="M1825 1000 c3 -5 13 -6 22 -3 10 4 14 2 9 -5 -3 -6 -1 -14 5 -18 8
-4 9 -3 5 4 -4 7 -2 12 5 12 22 0 1 13 -26 15 -14 2 -23 -1 -20 -5z"/>
<path d="M1940 1000 c-8 -5 -10 -10 -5 -10 6 0 17 5 25 10 8 5 11 10 5 10 -5
0 -17 -5 -25 -10z"/>
<path d="M2044 994 c-18 -14 -18 -15 4 -4 12 6 22 13 22 15 0 8 -5 6 -26 -11z"/>
<path d="M2121 998 c-1 -21 15 -32 25 -17 4 7 3 9 -4 5 -6 -3 -13 2 -15 11 -4
16 -5 16 -6 1z"/>
<path d="M1071 987 c-8 -10 -7 -14 4 -14 8 0 11 5 8 10 -4 6 1 8 11 4 10 -4
15 -3 11 3 -8 14 -20 12 -34 -3z"/>
<path d="M1375 990 c-4 -6 1 -7 11 -3 13 5 15 3 9 -7 -5 -9 -4 -11 4 -6 6 4 9
12 6 17 -8 12 -22 12 -30 -1z"/>
<path d="M2232 991 c-11 -7 -11 -9 0 -14 9 -3 15 1 15 9 0 8 -1 14 -1 14 -1 0
-7 -4 -14 -9z"/>
<path d="M980 984 c0 -1 6 -7 14 -13 10 -9 15 -8 19 2 3 8 -3 13 -14 13 -11 0
-19 -1 -19 -2z"/>
<path d="M1200 980 c-9 -6 -10 -10 -3 -10 6 0 15 5 18 10 8 12 4 12 -15 0z"/>
<path d="M1670 983 c1 -13 30 -48 30 -36 0 7 -5 15 -10 18 -6 4 -8 11 -5 16 4
5 1 9 -4 9 -6 0 -11 -3 -11 -7z"/>
<path d="M1920 970 c6 -11 13 -20 16 -20 2 0 0 9 -6 20 -6 11 -13 20 -16 20
-2 0 0 -9 6 -20z"/>
<path d="M1964 979 c-3 -6 -2 -15 4 -21 6 -6 12 -6 17 3 6 8 4 10 -5 4 -10 -6
-12 -4 -7 8 7 19 2 23 -9 6z"/>
<path d="M2075 981 c3 -5 1 -12 -5 -16 -5 -3 -10 -11 -10 -18 0 -6 7 -2 15 9
17 23 19 34 4 34 -5 0 -8 -4 -4 -9z"/>
<path d="M2396 978 c3 -5 10 -6 15 -3 13 9 11 12 -6 12 -8 0 -12 -4 -9 -9z"/>
<path d="M742 964 c10 -10 20 -16 22 -13 3 3 -5 11 -17 18 -21 13 -21 12 -5
-5z"/>
<path d="M842 960 c-9 -15 -9 -21 1 -26 6 -4 9 -4 5 1 -4 4 -3 14 4 22 6 7 9
15 7 18 -3 2 -10 -4 -17 -15z"/>
<path d="M1278 973 c7 -3 16 -2 19 1 4 3 -2 6 -13 5 -11 0 -14 -3 -6 -6z"/>
<path d="M1356 967 c3 -10 9 -15 12 -12 3 3 0 11 -7 18 -10 9 -11 8 -5 -6z"/>
<path d="M1790 970 c8 -5 20 -10 25 -10 6 0 3 5 -5 10 -8 5 -19 10 -25 10 -5
0 -3 -5 5 -10z"/>
<path d="M1841 963 c7 -12 15 -20 18 -17 3 2 -3 12 -13 22 -17 16 -18 16 -5
-5z"/>
<path d="M2373 965 c0 -8 5 -11 10 -8 7 4 8 -1 3 -12 -5 -15 -4 -16 9 -5 9 7
14 13 13 14 -2 1 -10 7 -19 14 -13 9 -16 9 -16 -3z"/>
<path d="M447 959 c7 -7 15 -10 18 -7 3 3 -2 9 -12 12 -14 6 -15 5 -6 -5z"/>
<path d="M710 963 c0 -6 8 -17 18 -24 16 -13 16 -13 2 6 -8 11 -16 22 -17 24
-2 2 -3 0 -3 -6z"/>
<path d="M1104 962 c4 -3 14 -7 22 -8 9 -1 13 0 10 4 -4 3 -14 7 -22 8 -9 1
-13 0 -10 -4z"/>
<path d="M1206 961 c-19 -7 -19 -8 0 -13 13 -3 21 0 21 8 0 8 -1 14 -1 13 -1
0 -10 -4 -20 -8z"/>
<path d="M1433 955 c0 -8 4 -12 9 -9 4 3 8 9 8 15 0 5 -4 9 -8 9 -5 0 -9 -7
-9 -15z"/>
<path d="M1510 965 c0 -5 5 -17 10 -25 5 -8 10 -10 10 -5 0 6 -5 17 -10 25 -5
8 -10 11 -10 5z"/>
<path d="M1720 955 c-7 -9 -11 -17 -9 -20 3 -2 10 5 17 15 14 24 10 26 -8 5z"/>
<path d="M2100 959 c0 -5 5 -7 10 -4 6 3 10 8 10 11 0 2 -4 4 -10 4 -5 0 -10
-5 -10 -11z"/>
<path d="M2184 958 c9 -5 23 -5 32 0 12 6 7 9 -16 9 -23 0 -28 -3 -16 -9z"/>
<path d="M2260 960 c-9 -6 -10 -10 -3 -10 6 0 15 5 18 10 8 12 4 12 -15 0z"/>
<path d="M2290 960 c0 -5 5 -10 11 -10 5 0 7 5 4 10 -3 6 -8 10 -11 10 -2 0
-4 -4 -4 -10z"/>
<path d="M2320 950 c-6 -11 -8 -20 -6 -20 3 0 10 9 16 20 6 11 8 20 6 20 -3 0
-10 -9 -16 -20z"/>
<path d="M2032 951 c-11 -7 -11 -9 0 -14 9 -3 15 1 15 9 0 8 -1 14 -1 14 -1 0
-7 -4 -14 -9z"/>
<path d="M990 940 c0 -5 5 -10 10 -10 6 0 10 5 10 10 0 6 -4 10 -10 10 -5 0
-10 -4 -10 -10z"/>
<path d="M1155 940 c6 -9 4 -12 -7 -8 -8 4 -15 1 -15 -6 0 -17 25 -16 31 0 3
8 0 16 -6 20 -7 5 -8 2 -3 -6z"/>
<path d="M1397 933 c3 -7 6 -13 8 -13 2 0 5 6 8 13 3 8 -1 14 -8 14 -7 0 -11
-6 -8 -14z"/>
<path d="M1479 948 c-9 -30 -6 -37 12 -28 23 13 25 22 2 13 -11 -4 -14 -3 -9
5 4 7 5 12 2 12 -3 0 -6 -1 -7 -2z"/>
<path d="M1601 928 c9 -16 29 -17 29 -2 0 3 -5 2 -12 -2 -7 -5 -9 -2 -6 8 4 8
0 15 -7 15 -10 0 -11 -5 -4 -19z"/>
<path d="M1735 940 c-3 -6 1 -7 9 -4 18 7 21 14 7 14 -6 0 -13 -4 -16 -10z"/>
<path d="M1870 939 c0 -5 5 -7 10 -4 6 3 10 8 10 11 0 2 -4 4 -10 4 -5 0 -10
-5 -10 -11z"/>
<path d="M1990 939 c0 -5 5 -7 10 -4 6 3 10 8 10 11 0 2 -4 4 -10 4 -5 0 -10
-5 -10 -11z"/>
<path d="M2068 928 c-10 -10 -14 -18 -9 -18 10 0 36 29 30 34 -2 1 -12 -6 -21
-16z"/>
<path d="M2177 934 c4 -11 3 -15 -5 -10 -6 3 -14 1 -18 -5 -4 -7 -3 -9 3 -6 6
4 13 1 16 -7 3 -7 16 -13 29 -12 18 1 22 6 20 23 -2 18 1 21 20 17 21 -4 21
-4 3 5 -26 11 -38 4 -32 -19 3 -14 -1 -18 -14 -17 -13 1 -17 7 -14 18 3 10 1
20 -4 24 -7 4 -8 -1 -4 -11z"/>
<path d="M693 925 c0 -8 4 -12 9 -9 5 3 6 10 3 15 -9 13 -12 11 -12 -6z"/>
<path d="M1787 926 c-3 -8 0 -17 7 -19 10 -4 12 1 9 14 -6 23 -9 24 -16 5z"/>
<path d="M1963 920 c-11 -16 -10 -18 2 -14 8 4 15 12 15 20 0 19 -3 18 -17 -6z"/>
<path d="M2275 929 c-11 -16 -1 -19 13 -3 7 8 8 14 3 14 -5 0 -13 -5 -16 -11z"/>
<path d="M2355 930 c-3 -5 -3 -10 2 -10 4 0 1 -5 -7 -11 -12 -8 -12 -10 -1 -7
8 2 15 12 17 21 3 19 -2 22 -11 7z"/>
<path d="M626 918 c3 -5 10 -6 15 -3 13 9 11 12 -6 12 -8 0 -12 -4 -9 -9z"/>
<path d="M927 919 c7 -7 15 -10 18 -7 3 3 -2 9 -12 12 -14 6 -15 5 -6 -5z"/>
<path d="M1054 913 c1 -7 6 -16 10 -20 4 -4 7 -3 6 2 -4 20 1 30 9 17 7 -11 9
-11 14 0 3 9 -3 14 -18 14 -13 0 -22 -6 -21 -13z"/>
<path d="M1220 915 c-11 -13 -10 -14 5 -9 14 6 16 4 10 -6 -5 -8 -4 -11 3 -6
6 4 9 13 5 21 -7 19 -8 19 -23 0z"/>
<path d="M1674 922 c4 -3 14 -7 22 -8 9 -1 13 0 10 4 -4 3 -14 7 -22 8 -9 1
-13 0 -10 -4z"/>
<path d="M1745 919 c-4 -6 -5 -12 -2 -15 2 -3 7 2 10 11 7 17 1 20 -8 4z"/>
<path d="M1880 915 c-19 -22 -8 -25 13 -3 9 10 13 18 8 18 -5 0 -14 -7 -21
-15z"/>
<path d="M1920 915 c-7 -9 -10 -18 -7 -21 3 -3 10 4 17 15 13 25 8 27 -10 6z"/>
<path d="M2010 919 c0 -5 5 -7 10 -4 6 3 10 8 10 11 0 2 -4 4 -10 4 -5 0 -10
-5 -10 -11z"/>
<path d="M1637 913 c-10 -9 -9 -23 1 -23 5 0 9 7 9 15 0 17 -1 18 -10 8z"/>
<path d="M785 900 c-3 -6 1 -7 9 -4 18 7 21 14 7 14 -6 0 -13 -4 -16 -10z"/>
<path d="M829 890 c5 -8 6 -21 4 -27 -3 -7 0 -13 5 -13 6 0 9 8 7 18 -1 9 1
22 6 27 5 7 1 11 -11 11 -13 0 -16 -5 -11 -16z"/>
<path d="M878 903 c7 -3 16 -2 19 1 4 3 -2 6 -13 5 -11 0 -14 -3 -6 -6z"/>
<path d="M1030 905 c1 -5 7 -19 15 -29 21 -27 19 -31 -15 -32 -16 -1 -27 2
-25 6 3 5 -2 10 -10 14 -8 3 -17 0 -21 -6 -4 -7 -3 -8 4 -4 7 4 12 2 12 -4 0
-7 -22 -10 -65 -7 -35 2 -70 0 -77 -4 -6 -4 -21 -1 -32 7 -25 17 -46 19 -22 1
16 -12 16 -13 -3 -14 -12 -1 -21 2 -21 8 0 5 -5 9 -11 9 -5 0 -7 -6 -3 -12 5
-8 0 -7 -11 2 -11 9 -16 10 -11 3 5 -10 -8 -13 -56 -13 -72 0 -124 -25 -132
-62 -10 -50 -13 -77 -7 -75 4 1 38 -30 76 -68 39 -39 91 -86 118 -104 26 -19
47 -38 47 -43 0 -5 4 -7 9 -4 5 3 20 -5 35 -19 14 -13 26 -22 26 -20 0 2 37
-15 83 -38 45 -23 85 -40 90 -39 4 1 7 -4 7 -12 0 -8 4 -18 10 -21 6 -3 7 1 4
9 -3 9 -2 16 2 16 13 0 41 -20 29 -20 -5 0 -2 -5 8 -11 9 -6 14 -15 11 -21 -4
-7 -2 -8 5 -4 9 6 9 11 -1 24 -11 14 -10 15 7 8 24 -9 50 -16 87 -23 17 -3 25
-10 21 -17 -4 -6 1 -5 10 3 16 13 22 8 18 -13 -1 -5 5 -4 13 3 9 8 24 10 38 5
13 -4 31 -7 41 -5 9 1 17 -3 17 -9 0 -6 -5 -8 -12 -4 -7 4 -8 3 -4 -4 5 -9 13
-8 30 3 12 8 25 12 29 9 4 -4 28 -7 54 -8 34 -1 47 -5 45 -14 -1 -8 2 -11 8
-7 6 3 8 10 5 15 -3 4 11 10 30 12 27 3 35 0 36 -12 0 -13 1 -13 7 0 5 11 22
15 59 15 28 0 49 3 46 7 -2 5 2 8 11 8 8 0 17 -6 19 -12 4 -9 6 -8 6 2 1 15
21 21 78 24 11 0 19 4 18 7 -6 9 93 31 106 23 7 -4 9 -3 6 3 -8 13 41 36 55
27 6 -4 8 -2 5 3 -4 6 1 13 11 15 24 7 37 4 34 -5 -1 -5 2 -6 7 -2 6 3 8 12 4
20 -3 8 -1 15 4 15 5 0 36 16 68 35 32 20 64 34 71 31 7 -3 11 0 8 7 -2 7 12
23 31 36 19 13 46 34 59 48 14 14 30 22 36 18 6 -4 9 -3 8 2 -2 5 7 21 20 37
22 29 22 29 45 10 22 -19 22 -19 5 2 -16 18 -16 22 -2 42 8 12 19 20 24 17 4
-3 10 5 13 16 3 12 9 19 14 16 14 -9 8 76 -8 101 -8 12 -23 25 -34 28 -11 4
-23 12 -27 18 -5 6 -8 7 -8 1 0 -17 -62 -9 -75 9 -11 15 -13 15 -19 1 -3 -9
-2 -13 4 -10 6 3 10 1 10 -5 0 -7 -7 -9 -16 -6 -9 3 -81 6 -160 6 -113 0 -144
3 -138 13 6 10 4 10 -7 0 -20 -19 -67 -16 -72 5 -4 14 -5 13 -6 -3 -1 -19 -6
-20 -61 -15 -33 3 -60 3 -60 0 0 -3 -27 -6 -60 -6 -36 0 -60 4 -60 10 0 6 -4
5 -9 -2 -4 -8 -11 -13 -15 -13 -14 2 -43 37 -38 46 3 6 1 6 -3 2 -15 -13 -14
-36 1 -30 8 3 14 1 14 -4 0 -13 -42 -14 -59 0 -12 9 -13 9 -7 -1 6 -9 -5 -12
-43 -11 -45 2 -49 4 -39 18 10 13 9 13 -7 -1 -11 -9 -34 -16 -51 -16 -17 1
-37 -3 -44 -7 -10 -6 -12 -4 -6 10 6 15 4 16 -9 5 -11 -9 -53 -14 -130 -16
-63 -1 -118 -5 -124 -9 -17 -10 -13 6 6 29 17 20 17 21 -2 4 -18 -17 -20 -16
-37 10 -10 15 -18 23 -18 17z m850 -111 c0 6 7 1 15 -10 15 -19 15 -19 8 1 -3
11 -3 17 2 13 4 -4 14 -3 21 3 10 9 15 7 20 -4 3 -9 13 -18 22 -22 14 -5 15
-4 5 6 -7 7 -13 18 -13 23 0 6 5 5 12 -2 8 -8 17 -8 31 0 17 9 19 8 13 -7 -5
-15 -4 -16 9 -5 12 10 18 10 32 -1 9 -8 14 -9 10 -2 -5 8 13 11 63 12 49 0 70
-3 70 -12 0 -8 4 -7 10 3 9 13 11 13 20 0 14 -22 12 -30 -7 -24 -15 5 -15 4
-3 -4 19 -14 32 -5 25 17 -4 15 3 17 62 15 38 -1 71 -2 76 -3 12 -2 3 -25 -20
-48 -13 -12 -23 -27 -23 -32 0 -6 -8 -7 -17 -4 -12 5 -15 2 -11 -9 4 -9 1 -21
-5 -27 -14 -14 -30 -14 -21 1 5 7 3 8 -5 4 -7 -5 -10 -14 -7 -21 2 -7 -6 -18
-20 -25 -13 -8 -24 -17 -24 -21 0 -4 -23 -24 -51 -44 -28 -20 -48 -31 -44 -23
3 7 0 5 -8 -4 -11 -14 -16 -15 -26 -5 -10 9 -11 8 -6 -4 4 -10 1 -20 -5 -24
-14 -9 -32 14 -23 29 3 5 1 6 -6 2 -6 -4 -20 -2 -29 6 -15 12 -16 11 -4 -4 8
-10 10 -23 6 -30 -6 -10 -3 -9 9 1 11 9 17 10 17 2 0 -18 -4 -26 -12 -24 -5 2
-8 -3 -8 -10 0 -8 -4 -7 -10 3 -8 13 -10 12 -10 -3 0 -10 -5 -15 -10 -12 -6 4
-7 11 -4 17 4 7 2 8 -4 4 -6 -4 -9 -12 -7 -19 3 -7 -21 -23 -58 -40 -66 -29
-82 -33 -72 -18 3 5 0 13 -6 17 -8 4 -9 3 -5 -4 4 -7 2 -12 -5 -12 -7 0 -9 -3
-5 -7 12 -12 -117 -51 -131 -40 -9 6 -13 5 -13 -2 0 -7 -5 -9 -10 -6 -8 5 -7
12 2 23 12 15 11 16 -4 3 -10 -7 -15 -17 -12 -22 5 -8 -22 -14 -56 -11 -8 1
-30 -3 -48 -8 -29 -7 -32 -7 -21 6 6 8 8 14 3 14 -5 0 -1 7 9 14 18 14 17 14
-2 21 -26 8 -28 25 -2 18 10 -3 21 -1 24 4 7 10 -40 10 -50 -1 -5 -4 0 -14 10
-21 12 -8 14 -15 7 -20 -5 -3 -8 -9 -6 -13 9 -15 -21 -27 -66 -28 -47 -1 -65
10 -30 19 16 4 16 5 -1 6 -10 0 -20 -5 -23 -13 -3 -8 -12 -12 -21 -9 -8 3 -36
7 -61 8 -65 3 -64 2 -58 28 l6 22 -12 -23 c-6 -13 -18 -21 -27 -18 -9 3 -36
10 -61 17 -25 7 -49 17 -55 22 -7 7 -5 7 4 2 10 -6 12 -4 6 4 -5 9 -11 9 -17
3 -15 -15 -101 16 -94 34 3 8 1 14 -4 14 -6 0 -10 -4 -10 -10 0 -16 -18 -12
-39 9 -11 11 -21 17 -24 15 -8 -9 -138 70 -145 88 -2 5 -9 5 -15 1 -7 -4 -7
-1 1 9 10 13 10 18 1 24 -8 4 -9 3 -5 -4 15 -25 -21 -10 -56 23 -21 18 -38 32
-38 30 0 -2 -15 11 -33 28 -18 18 -31 34 -30 36 1 2 -7 11 -17 20 -15 12 -17
19 -9 31 9 12 10 11 5 -5 -6 -19 -5 -19 8 -2 19 24 29 21 15 -5 -8 -17 -4 -15
13 6 17 20 27 26 32 17 4 -6 13 -8 19 -4 15 9 37 13 37 6 0 -2 -5 -14 -12 -26
-10 -20 -10 -21 5 -8 10 7 17 21 17 30 1 13 3 13 15 -3 15 -20 50 -33 39 -15
-3 5 -9 7 -14 4 -4 -3 -10 1 -13 9 -4 9 2 14 19 14 13 -1 21 -4 18 -9 -3 -5 0
-9 5 -9 6 0 11 5 11 10 0 6 12 10 26 10 14 0 23 -4 20 -8 -3 -5 1 -9 8 -9 8 0
12 5 10 12 -3 8 20 11 78 10 46 -1 91 3 102 8 13 6 16 6 12 -2 -4 -6 -2 -11 3
-11 6 0 11 4 11 9 0 10 26 9 36 -2 10 -10 26 -9 20 1 -7 11 35 9 53 -2 10 -6
12 -5 7 2 -4 7 -1 12 9 12 9 0 14 -4 11 -8 -3 -5 1 -9 9 -9 8 0 11 5 8 10 -3
5 13 8 41 6 25 -2 46 -2 46 1 0 8 88 5 96 -3 4 -4 13 -2 20 4 8 7 14 7 19 -1
3 -5 12 -10 18 -10 7 0 6 4 -3 10 -11 7 0 10 38 10 40 0 51 -3 46 -12 -6 -9
-3 -9 9 0 18 15 74 14 96 -2 11 -8 13 -8 7 2 -6 10 1 13 30 10 27 -2 38 -8 40
-21 1 -11 5 -22 9 -25 3 -4 4 5 1 20 -4 24 -2 26 35 24 21 -1 45 1 51 5 7 5
16 3 20 -4 4 -7 8 -8 8 -3z"/>
<path d="M1800 786 c0 -2 7 -7 16 -10 8 -3 12 -2 9 4 -6 10 -25 14 -25 6z"/>
<path d="M1852 785 c4 -4 0 -14 -10 -21 -9 -7 -12 -14 -6 -14 6 0 17 6 23 14
9 11 9 16 -1 22 -7 4 -10 4 -6 -1z"/>
<path d="M2279 777 c6 -8 8 -17 4 -20 -3 -4 -1 -7 5 -7 14 0 14 2 6 24 -3 9
-11 16 -16 16 -7 0 -6 -5 1 -13z"/>
<path d="M2313 773 c1 -12 4 -20 8 -17 4 2 9 1 12 -3 2 -5 2 -2 1 5 -2 6 1 12
6 12 6 0 10 5 10 11 0 8 -4 8 -14 0 -11 -9 -15 -9 -19 1 -3 7 -4 3 -4 -9z"/>
<path d="M1656 767 c3 -10 9 -15 12 -12 3 3 0 11 -7 18 -10 9 -11 8 -5 -6z"/>
<path d="M967 759 c7 -7 15 -10 18 -7 3 3 -2 9 -12 12 -14 6 -15 5 -6 -5z"/>
<path d="M1055 760 c-3 -5 -1 -10 4 -10 6 0 11 5 11 10 0 6 -2 10 -4 10 -3 0
-8 -4 -11 -10z"/>
<path d="M1110 760 c0 -5 5 -10 10 -10 6 0 10 5 10 10 0 6 -4 10 -10 10 -5 0
-10 -4 -10 -10z"/>
<path d="M1149 748 l-24 -19 25 12 c14 8 28 13 32 14 13 0 17 12 4 12 -8 0
-25 -9 -37 -19z"/>
<path d="M1419 768 c-5 -18 -6 -38 -1 -34 7 8 12 36 6 36 -2 0 -4 -1 -5 -2z"/>
<path d="M1529 757 c6 -8 7 -18 3 -22 -4 -5 -1 -5 6 -1 10 6 10 11 1 22 -6 8
-14 14 -16 14 -3 0 0 -6 6 -13z"/>
<path d="M1680 766 c0 -2 8 -10 18 -17 15 -13 16 -12 3 4 -13 16 -21 21 -21
13z"/>
<path d="M1915 760 c-3 -5 -3 -10 2 -10 4 0 1 -5 -7 -11 -12 -8 -12 -10 -1 -7
8 2 15 12 17 21 3 19 -2 22 -11 7z"/>
<path d="M2190 760 c0 -6 6 -13 14 -16 8 -3 13 -14 11 -24 -3 -13 1 -16 16
-13 10 3 19 9 19 14 0 5 -7 5 -17 2 -9 -4 -14 -2 -10 4 3 5 -3 17 -14 26 -10
9 -19 12 -19 7z"/>
<path d="M674 742 c3 -6 -1 -12 -9 -16 -17 -6 -20 -26 -4 -26 5 0 8 4 5 9 -3
5 1 11 9 15 17 6 30 -10 15 -17 -6 -3 -5 -4 2 -3 20 4 19 21 -3 34 -12 8 -18
9 -15 4z"/>
<path d="M855 740 c5 -9 1 -10 -16 -6 -21 6 -22 6 -6 -5 13 -7 22 -8 29 -1 6
6 6 12 -3 17 -8 6 -10 4 -4 -5z"/>
<path d="M910 741 c0 -10 29 -36 34 -30 1 2 -6 12 -16 22 -10 9 -18 13 -18 8z"/>
<path d="M1016 742 c-2 -4 -1 -14 4 -22 7 -11 12 -12 21 -3 6 6 8 16 5 22 -8
13 -23 14 -30 3z m24 -12 c0 -5 -2 -10 -4 -10 -3 0 -8 5 -11 10 -3 6 -1 10 4
10 6 0 11 -4 11 -10z"/>
<path d="M1073 735 c-3 -9 -3 -19 1 -22 3 -4 6 1 6 11 0 9 5 14 10 11 7 -4 6
-14 -1 -28 -9 -21 -9 -21 5 -4 15 19 12 47 -5 47 -5 0 -12 -7 -16 -15z"/>
<path d="M1290 739 c0 -5 5 -7 10 -4 6 3 10 8 10 11 0 2 -4 4 -10 4 -5 0 -10
-5 -10 -11z"/>
<path d="M1326 742 c-3 -5 1 -9 9 -9 8 0 12 4 9 9 -3 4 -7 8 -9 8 -2 0 -6 -4
-9 -8z"/>
<path d="M1566 742 c-3 -5 1 -9 9 -9 8 0 12 4 9 9 -3 4 -7 8 -9 8 -2 0 -6 -4
-9 -8z"/>
<path d="M1870 740 c0 -5 5 -10 11 -10 5 0 7 5 4 10 -3 6 -8 10 -11 10 -2 0
-4 -4 -4 -10z"/>
<path d="M1948 743 c6 -3 10 -9 6 -14 -8 -14 2 -11 14 4 8 10 6 13 -11 14 -12
0 -16 -1 -9 -4z"/>
<path d="M1995 742 c3 -3 -3 -15 -12 -26 -13 -15 -10 -14 10 3 32 29 31 28 12
28 -8 0 -13 -3 -10 -5z"/>
<path d="M2119 733 c-13 -16 -12 -17 4 -4 16 13 21 21 13 21 -2 0 -10 -8 -17
-17z"/>
<path d="M2155 743 c3 -3 -3 -16 -12 -27 -14 -15 -14 -18 -2 -8 9 6 18 9 22 6
3 -3 4 1 3 10 -1 8 -5 18 -9 21 -4 3 -5 2 -2 -2z"/>
<path d="M2264 731 c15 -17 15 -19 1 -25 -9 -3 -14 -10 -11 -15 4 -5 1 -12 -4
-14 -6 -3 -5 -4 2 -2 7 1 12 8 10 15 -2 8 3 10 13 6 9 -3 14 -2 11 3 -3 5 1
11 9 15 17 6 20 26 4 26 -5 0 -7 -4 -4 -10 3 -5 1 -10 -5 -10 -6 0 -13 7 -16
15 -4 8 -11 15 -17 15 -5 0 -2 -8 7 -19z"/>
<path d="M882 720 c-18 -29 -15 -38 4 -12 9 13 14 25 12 27 -2 2 -9 -5 -16
-15z"/>
<path d="M1796 726 c10 -8 21 -12 24 -10 5 6 -21 24 -34 24 -6 0 -1 -6 10 -14z"/>
<path d="M1842 720 c-18 -29 -15 -38 4 -12 9 13 14 25 12 27 -2 2 -9 -5 -16
-15z"/>
<path d="M756 715 c5 -11 2 -14 -12 -9 -15 6 -16 4 -7 -6 6 -7 16 -9 22 -6 14
9 15 36 1 36 -5 0 -7 -7 -4 -15z"/>
<path d="M1145 719 c-4 -6 -5 -12 -2 -15 2 -3 7 2 10 11 7 17 1 20 -8 4z"/>
<path d="M790 709 c0 -5 5 -7 10 -4 6 3 10 8 10 11 0 2 -4 4 -10 4 -5 0 -10
-5 -10 -11z"/>
<path d="M1275 710 c-4 -6 -11 -7 -17 -4 -7 4 -8 2 -4 -5 6 -9 11 -9 22 0 14
11 18 19 10 19 -3 0 -8 -5 -11 -10z"/>
<path d="M815 700 c-3 -6 1 -7 9 -4 18 7 21 14 7 14 -6 0 -13 -4 -16 -10z"/>
<path d="M899 708 c-9 -30 -6 -37 12 -28 23 13 25 22 2 13 -11 -4 -14 -3 -9 5
4 7 5 12 2 12 -3 0 -6 -1 -7 -2z"/>
<path d="M990 700 c0 -5 5 -10 10 -10 6 0 10 5 10 10 0 6 -4 10 -10 10 -5 0
-10 -4 -10 -10z"/>
<path d="M1050 701 c0 -5 6 -12 13 -15 6 -3 1 -4 -13 -2 -19 4 -30 -2 -47 -26
-12 -17 -20 -40 -17 -51 2 -12 -2 -25 -9 -29 -8 -5 -7 -8 5 -8 10 0 22 -9 28
-20 6 -11 17 -20 24 -20 8 0 17 -7 20 -16 5 -12 1 -14 -17 -9 -20 5 -20 5 -4
-5 15 -9 22 -8 37 5 11 10 26 15 35 11 9 -3 18 1 21 9 4 8 10 12 15 9 5 -3 9
2 9 11 0 9 5 13 10 10 10 -6 7 21 -6 63 -2 6 3 12 11 12 8 0 15 4 15 10 0 5
-6 7 -14 4 -8 -3 -37 11 -65 30 -28 20 -51 32 -51 27z m39 -94 c6 -8 8 -17 5
-20 -9 -8 -44 11 -44 23 0 15 26 12 39 -3z"/>
<path d="M1060 606 c0 -2 7 -7 16 -10 8 -3 12 -2 9 4 -6 10 -25 14 -25 6z"/>
<path d="M1114 701 c4 -5 1 -12 -4 -14 -6 -3 -5 -4 2 -3 15 3 23 26 8 26 -6 0
-9 -4 -6 -9z"/>
<path d="M1746 701 c-4 -5 3 -7 14 -4 23 6 26 13 6 13 -8 0 -17 -4 -20 -9z"/>
<path d="M1854 695 c-4 -8 -12 -15 -18 -15 -7 0 -29 -12 -48 -27 -32 -25 -35
-32 -30 -62 4 -27 2 -33 -9 -26 -8 5 -11 4 -6 -1 5 -5 14 -9 20 -9 7 -1 11 -5
10 -11 -1 -9 12 -13 55 -16 7 -1 10 -9 6 -21 -5 -17 -4 -17 16 3 16 16 29 20
48 16 16 -4 22 -3 14 2 -9 6 -6 14 12 31 21 20 23 26 14 61 -9 36 -28 52 -63
55 -5 0 -9 8 -9 18 2 21 -5 22 -12 2z m22 -94 c-3 -5 -17 -8 -31 -8 -13 0 -22
3 -19 8 3 5 16 9 30 9 14 0 23 -4 20 -9z"/>
<path d="M710 691 c0 -5 -12 -8 -26 -5 -22 4 -23 3 -12 -10 7 -7 15 -10 18 -6
3 4 13 6 23 4 18 -2 23 11 7 21 -5 3 -10 2 -10 -4z"/>
<path d="M955 690 c3 -6 1 -10 -6 -10 -7 0 -10 -3 -6 -6 3 -3 13 -2 22 4 16 8
16 9 1 15 -10 4 -15 3 -11 -3z"/>
<path d="M1174 686 c1 -8 5 -18 8 -22 4 -3 5 1 4 10 -1 8 -5 18 -8 22 -4 3 -5
-1 -4 -10z"/>
<path d="M780 680 c8 -5 20 -10 25 -10 6 0 3 5 -5 10 -8 5 -19 10 -25 10 -5 0
-3 -5 5 -10z"/>
<path d="M825 679 c-4 -6 -5 -12 -2 -15 2 -3 7 2 10 11 7 17 1 20 -8 4z"/>
<path d="M1135 679 c-6 -8 -4 -10 5 -4 10 6 12 4 6 -11 -6 -15 -5 -17 5 -6 9
9 10 15 2 23 -8 8 -13 7 -18 -2z"/>
<path d="M1760 686 c0 -2 8 -10 18 -17 15 -13 16 -12 3 4 -13 16 -21 21 -21
13z"/>
<path d="M1940 680 c-9 -6 -10 -10 -3 -10 6 0 15 5 18 10 8 12 4 12 -15 0z"/>
<path d="M2148 676 c4 -6 7 -14 7 -18 0 -19 11 -14 11 6 0 12 -6 23 -13 23 -6
0 -9 -5 -5 -11z"/>
<path d="M855 670 c-3 -6 1 -7 9 -4 18 7 21 14 7 14 -6 0 -13 -4 -16 -10z"/>
<path d="M735 661 c-3 -6 -3 -11 2 -11 4 0 1 -5 -7 -11 -13 -9 -13 -10 0 -6 8
2 14 10 13 16 -2 6 6 11 16 11 14 0 18 -5 14 -19 -6 -22 12 -37 23 -20 5 8 3
9 -5 4 -9 -5 -12 0 -9 16 2 18 -2 25 -19 27 -11 2 -24 -2 -28 -7z"/>
<path d="M975 660 c3 -5 8 -10 11 -10 2 0 4 5 4 10 0 6 -5 10 -11 10 -5 0 -7
-4 -4 -10z"/>
<path d="M1747 659 c7 -7 15 -10 18 -7 3 3 -2 9 -12 12 -14 6 -15 5 -6 -5z"/>
<path d="M2033 655 c0 -8 4 -12 9 -9 5 3 6 10 3 15 -9 13 -12 11 -12 -6z"/>
<path d="M2187 659 c7 -7 15 -10 18 -7 3 3 -2 9 -12 12 -14 6 -15 5 -6 -5z"/>
<path d="M1715 651 c-3 -5 -2 -12 3 -15 5 -3 9 1 9 9 0 17 -3 19 -12 6z"/>
<path d="M2230 650 c8 -5 20 -10 25 -10 6 0 3 5 -5 10 -8 5 -19 10 -25 10 -5
0 -3 -5 5 -10z"/>
<path d="M813 637 c-4 -6 -1 -7 7 -2 10 6 12 4 7 -8 -4 -10 -2 -14 7 -11 7 3
13 11 13 18 0 15 -25 17 -34 3z"/>
<path d="M910 639 c0 -5 5 -7 10 -4 6 3 10 8 10 11 0 2 -4 4 -10 4 -5 0 -10
-5 -10 -11z"/>
<path d="M954 635 c-4 -8 -11 -12 -17 -8 -6 4 -7 1 -2 -7 6 -10 11 -10 20 3 7
9 16 13 20 9 5 -4 5 -1 1 6 -9 16 -15 15 -22 -3z"/>
<path d="M1475 641 c-3 -5 -2 -12 3 -15 5 -3 9 1 9 9 0 17 -3 19 -12 6z"/>
<path d="M1944 638 c-4 -7 -2 -8 5 -4 6 4 18 3 25 -3 9 -8 13 -7 13 2 0 16
-34 20 -43 5z"/>
<path d="M750 623 c0 -6 8 -17 18 -24 16 -13 16 -13 2 6 -8 11 -16 22 -17 24
-2 2 -3 0 -3 -6z"/>
<path d="M1215 620 c3 -5 8 -10 11 -10 2 0 4 5 4 10 0 6 -5 10 -11 10 -5 0 -7
-4 -4 -10z"/>
<path d="M1686 622 c-3 -5 1 -9 9 -9 8 0 12 4 9 9 -3 4 -7 8 -9 8 -2 0 -6 -4
-9 -8z"/>
<path d="M910 613 c5 -2 8 -9 4 -14 -3 -5 2 -12 10 -15 9 -3 13 -10 10 -16
-10 -16 4 -38 21 -32 8 3 15 11 15 16 0 6 -8 4 -17 -3 -15 -13 -16 -12 -11 9
4 13 1 25 -7 30 -8 4 -14 11 -14 17 0 5 -4 10 -10 12 -7 1 -8 0 -1 -4z"/>
<path d="M1177 613 c-10 -9 -9 -23 1 -23 5 0 9 7 9 15 0 17 -1 18 -10 8z"/>
<path d="M1956 607 c3 -10 9 -15 12 -12 3 3 0 11 -7 18 -10 9 -11 8 -5 -6z"/>
<path d="M1350 601 c0 -6 4 -13 10 -16 6 -3 7 1 4 9 -7 18 -14 21 -14 7z"/>
<path d="M2093 595 c0 -8 4 -12 9 -9 5 3 6 10 3 15 -9 13 -12 11 -12 -6z"/>
<path d="M2120 605 c0 -2 6 -8 13 -14 10 -8 14 -7 14 2 0 8 -6 14 -14 14 -7 0
-13 -1 -13 -2z"/>
<path d="M958 593 c7 -3 16 -2 19 1 4 3 -2 6 -13 5 -11 0 -14 -3 -6 -6z"/>
<path d="M877 570 c21 -24 24 -25 16 -3 -5 12 -3 14 8 8 8 -4 11 -4 6 0 -4 5
-16 10 -27 12 -19 3 -19 2 -3 -17z"/>
<path d="M1415 571 c2 -11 -3 -25 -11 -32 -8 -6 -14 -21 -14 -33 0 -12 -5 -27
-10 -34 -6 -6 -7 -10 -4 -8 3 3 18 -6 32 -20 15 -13 39 -24 55 -24 15 0 26 -4
22 -10 -3 -5 -13 -7 -23 -4 -13 5 -14 4 -3 -4 9 -7 24 -3 49 14 20 14 41 23
48 20 7 -3 10 2 7 14 -3 10 0 21 6 24 7 5 7 15 1 31 -5 14 -6 25 -2 25 4 0 -8
10 -26 21 -25 17 -43 20 -77 17 -25 -3 -42 -2 -40 3 3 4 1 10 -4 14 -6 3 -8
-3 -6 -14z m95 -70 c3 -1 -2 -6 -12 -11 -17 -11 -51 -3 -43 10 4 6 37 7 55 1z"/>
<path d="M840 560 c-8 -5 -10 -10 -5 -10 6 0 17 5 25 10 8 5 11 10 5 10 -5 0
-17 -5 -25 -10z"/>
<path d="M2034 562 c4 -3 14 -7 22 -8 9 -1 13 0 10 4 -4 3 -14 7 -22 8 -9 1
-13 0 -10 -4z"/>
<path d="M1993 545 c0 -8 4 -12 9 -9 5 3 6 10 3 15 -9 13 -12 11 -12 -6z"/>
<path d="M911 545 c1 -19 18 -51 18 -35 0 8 -4 22 -9 30 -5 8 -9 11 -9 5z"/>
<path d="M1655 541 c-3 -5 -2 -12 3 -15 5 -3 9 1 9 9 0 17 -3 19 -12 6z"/>
<path d="M1690 539 c0 -5 5 -7 10 -4 6 3 10 8 10 11 0 2 -4 4 -10 4 -5 0 -10
-5 -10 -11z"/>
<path d="M1926 538 c3 -5 10 -6 15 -3 13 9 11 12 -6 12 -8 0 -12 -4 -9 -9z"/>
<path d="M982 531 c-11 -6 -10 -10 4 -15 20 -8 32 0 18 14 -5 5 -15 5 -22 1z"/>
<path d="M1946 525 c-11 -8 -16 -15 -10 -15 5 0 18 7 28 15 11 8 16 15 10 15
-5 0 -18 -7 -28 -15z"/>
<path d="M860 525 c0 -7 30 -13 34 -7 3 4 -4 9 -15 9 -10 1 -19 0 -19 -2z"/>
<path d="M950 510 c0 -5 7 -10 16 -10 8 0 13 -3 10 -8 -6 -11 22 -47 31 -38 4
4 0 12 -10 17 -9 6 -15 14 -12 19 3 5 -4 14 -15 20 -13 7 -20 7 -20 0z"/>
<path d="M1135 511 c-3 -5 0 -13 6 -17 7 -4 9 -3 5 4 -3 5 0 13 6 15 9 4 10 6
1 6 -6 1 -14 -3 -18 -8z"/>
<path d="M1789 503 c-13 -17 -13 -17 6 -3 11 8 22 16 24 17 2 2 0 3 -6 3 -6 0
-17 -8 -24 -17z"/>
<path d="M1853 493 c-3 -7 -3 -18 0 -25 3 -7 6 -3 6 9 1 16 6 20 20 16 10 -3
21 -1 24 4 3 4 -6 8 -20 8 -14 0 -28 -5 -30 -12z"/>
<path d="M1113 485 c0 -8 4 -15 9 -15 4 0 8 4 8 9 0 6 -4 12 -8 15 -5 3 -9 -1
-9 -9z"/>
<path d="M1917 493 c-4 -3 -7 -11 -7 -17 0 -6 5 -5 12 2 6 6 9 14 7 17 -3 3
-9 2 -12 -2z"/>
<path d="M1957 486 c-4 -10 -3 -15 3 -11 6 3 10 1 10 -6 0 -7 3 -10 6 -6 3 3
2 13 -4 22 -8 16 -9 16 -15 1z"/>
<path d="M935 480 c3 -5 8 -10 11 -10 2 0 4 5 4 10 0 6 -5 10 -11 10 -5 0 -7
-4 -4 -10z"/>
<path d="M1021 483 c-1 -17 16 -25 25 -12 4 7 3 9 -4 5 -5 -3 -13 0 -15 6 -4
9 -6 10 -6 1z"/>
<path d="M1078 483 c7 -3 16 -2 19 1 4 3 -2 6 -13 5 -11 0 -14 -3 -6 -6z"/>
<path d="M1250 479 c0 -5 5 -7 10 -4 6 3 10 8 10 11 0 2 -4 4 -10 4 -5 0 -10
-5 -10 -11z"/>
<path d="M1739 473 c-13 -17 -13 -17 6 -3 11 8 22 16 24 17 2 2 0 3 -6 3 -6 0
-17 -8 -24 -17z"/>
<path d="M1816 463 c-6 -14 -5 -15 5 -6 7 7 10 15 7 18 -3 3 -9 -2 -12 -12z"/>
<path d="M1059 467 c0 -1 -2 -13 -5 -27 -3 -18 -2 -21 5 -10 5 8 8 17 5 21 -2
4 5 7 16 6 12 -1 19 -6 16 -14 -3 -7 -1 -13 5 -13 20 0 4 33 -18 36 -13 2 -23
3 -24 1z"/>
<path d="M1153 448 c-1 -10 3 -18 9 -18 6 0 8 3 5 7 -4 3 -2 11 3 18 7 8 6 12
-3 12 -7 0 -14 -9 -14 -19z"/>
<path d="M1760 455 c-7 -9 -11 -17 -9 -20 3 -2 10 5 17 15 14 24 10 26 -8 5z"/>
<path d="M1870 461 c0 -6 7 -7 17 -4 10 4 14 2 9 -5 -3 -6 -2 -13 3 -16 5 -4
8 2 7 11 -3 19 -36 32 -36 14z"/>
<path d="M1354 441 c0 -11 5 -17 13 -14 10 4 11 9 2 19 -15 18 -15 18 -15 -5z"/>
<path d="M1616 447 c3 -10 9 -15 12 -12 3 3 0 11 -7 18 -10 9 -11 8 -5 -6z"/>
<path d="M1213 435 c0 -8 4 -12 9 -9 5 3 6 10 3 15 -9 13 -12 11 -12 -6z"/>
<path d="M1827 430 c-3 -11 -3 -20 -1 -20 2 0 8 9 14 20 6 11 7 20 2 20 -6 0
-12 -9 -15 -20z"/>
<path d="M1920 439 c0 -5 5 -7 10 -4 6 3 10 8 10 11 0 2 -4 4 -10 4 -5 0 -10
-5 -10 -11z"/>
<path d="M1876 427 c3 -10 9 -15 12 -12 3 3 0 11 -7 18 -10 9 -11 8 -5 -6z"/>
<path d="M1300 426 c0 -2 8 -10 18 -17 15 -13 16 -12 3 4 -13 16 -21 21 -21
13z"/>
<path d="M1393 403 c-1 -24 -1 -25 7 -8 11 26 12 35 2 35 -4 0 -8 -12 -9 -27z"/>
<path d="M1660 426 c0 -2 8 -10 18 -17 15 -13 16 -12 3 4 -13 16 -21 21 -21
13z"/>
<path d="M1627 402 c1 -8 3 -16 3 -18 0 -2 4 -4 8 -4 5 0 9 7 9 15 0 8 -4 12
-8 9 -4 -2 -9 -1 -12 3 -2 5 -2 2 0 -5z"/>
<path d="M1735 409 c-4 -6 -14 -8 -22 -5 -8 3 -11 1 -8 -4 3 -6 13 -10 21 -10
9 0 12 -5 8 -12 -4 -7 -3 -10 1 -5 8 7 15 47 9 47 -2 0 -6 -5 -9 -11z"/>
<path d="M1774 399 c0 -12 4 -15 12 -9 6 6 14 7 17 3 4 -3 7 -2 7 4 0 6 -8 13
-18 15 -12 4 -18 -1 -18 -13z"/>
<path d="M1204 399 c-2 -5 5 -6 17 -4 13 3 28 0 34 -5 8 -7 12 -5 12 3 0 14
-55 19 -63 6z"/>
<path d="M1516 390 c6 -22 5 -23 -10 -11 -10 9 -16 10 -16 2 0 -6 5 -11 11
-11 5 0 7 -4 4 -10 -3 -5 -2 -10 3 -10 16 0 23 30 12 48 -9 14 -10 12 -4 -8z"/>
<path d="M1590 399 c0 -5 5 -7 10 -4 6 3 10 8 10 11 0 2 -4 4 -10 4 -5 0 -10
-5 -10 -11z"/>
<path d="M1355 390 c-3 -5 -1 -10 4 -10 6 0 11 5 11 10 0 6 -2 10 -4 10 -3 0
-8 -4 -11 -10z"/>
<path d="M1416 378 c3 -5 11 -7 17 -5 7 2 21 0 32 -6 17 -9 18 -8 7 5 -13 16
-66 22 -56 6z"/>
<path d="M1326 358 c3 -4 9 -8 15 -8 5 0 9 4 9 8 0 5 -7 9 -15 9 -8 0 -12 -4
-9 -9z"/>
<path d="M1365 360 c-3 -6 1 -7 9 -4 18 7 21 14 7 14 -6 0 -13 -4 -16 -10z"/>
<path d="M1570 359 c0 -5 5 -7 10 -4 6 3 10 8 10 11 0 2 -4 4 -10 4 -5 0 -10
-5 -10 -11z"/>
<path d="M1190 903 c0 -6 8 -17 18 -24 16 -13 16 -13 2 6 -8 11 -16 22 -17 24
-2 2 -3 0 -3 -6z"/>
<path d="M1716 893 c-6 -14 -5 -15 5 -6 7 7 10 15 7 18 -3 3 -9 -2 -12 -12z"/>
<path d="M2030 900 c0 -6 7 -10 15 -10 8 0 15 2 15 4 0 2 -7 6 -15 10 -8 3
-15 1 -15 -4z"/>
<path d="M2115 899 c-19 -9 -19 -9 2 -5 12 2 24 -1 27 -8 3 -8 5 -8 5 1 1 17
-11 22 -34 12z"/>
<path d="M2248 903 c6 -2 9 -10 6 -15 -4 -7 -2 -8 5 -4 13 9 5 26 -12 25 -9 0
-8 -2 1 -6z"/>
<path d="M2375 900 c-2 -3 5 -7 16 -7 10 -1 19 2 19 6 0 9 -29 10 -35 1z"/>
<path d="M727 880 c-8 -11 -17 -17 -21 -13 -4 4 -4 -1 0 -10 3 -10 7 -17 8
-15 1 2 10 15 19 31 20 31 15 37 -6 7z"/>
<path d="M1301 893 c-1 -17 16 -25 25 -12 4 7 3 9 -4 5 -5 -3 -13 0 -15 6 -4
9 -6 10 -6 1z"/>
<path d="M1672 891 c-11 -7 -10 -9 3 -14 9 -4 14 -3 10 2 -3 5 1 12 7 14 7 3
9 6 3 6 -5 0 -16 -3 -23 -8z"/>
<path d="M653 873 c0 -9 4 -10 12 -3 7 5 15 7 18 3 4 -3 7 -1 7 5 0 6 -8 10
-18 9 -10 0 -19 -7 -19 -14z"/>
<path d="M1270 879 c0 -5 5 -7 10 -4 6 3 10 8 10 11 0 2 -4 4 -10 4 -5 0 -10
-5 -10 -11z"/>
<path d="M1405 880 c-3 -5 -1 -10 4 -10 6 0 11 5 11 10 0 6 -2 10 -4 10 -3 0
-8 -4 -11 -10z"/>
<path d="M1490 882 c0 -5 7 -9 15 -9 8 0 12 4 9 9 -3 4 -9 8 -15 8 -5 0 -9 -4
-9 -8z"/>
<path d="M2419 873 c-13 -17 -13 -17 6 -3 11 8 22 16 24 17 2 2 0 3 -6 3 -6 0
-17 -8 -24 -17z"/>
<path d="M955 869 c-4 -6 -5 -12 -2 -15 2 -3 7 2 10 11 7 17 1 20 -8 4z"/>
<path d="M1150 876 c0 -2 9 -6 20 -9 11 -3 18 -1 14 4 -5 9 -34 13 -34 5z"/>
<path d="M1108 863 c6 -2 18 -2 25 0 6 3 1 5 -13 5 -14 0 -19 -2 -12 -5z"/>
<path d="M593 845 c0 -8 4 -12 9 -9 5 3 6 10 3 15 -9 13 -12 11 -12 -6z"/>
<path d="M595 620 c-3 -5 -1 -10 4 -10 6 0 11 5 11 10 0 6 -2 10 -4 10 -3 0
-8 -4 -11 -10z"/>
<path d="M613 585 c0 -8 4 -12 9 -9 5 3 6 10 3 15 -9 13 -12 11 -12 -6z"/>
<path d="M2296 538 c3 -4 11 -5 19 -1 21 7 19 12 -4 10 -11 0 -18 -5 -15 -9z"/>
<path d="M893 385 c0 -8 4 -12 9 -9 5 3 6 10 3 15 -9 13 -12 11 -12 -6z"/>
<path d="M1975 340 c3 -5 8 -10 11 -10 2 0 4 5 4 10 0 6 -5 10 -11 10 -5 0 -7
-4 -4 -10z"/>
<path d="M1490 226 c0 -2 7 -7 16 -10 8 -3 12 -2 9 4 -6 10 -25 14 -25 6z"/>
</g>
</svg>
